G04 DipTrace 4.0.0.3*
G04 2 - Bottom.gbr*
%MOIN*%
G04 #@! TF.FileFunction,Copper,L2,Bot*
G04 #@! TF.Part,Single*
G04 #@! TA.AperFunction,Conductor*
%ADD13C,0.013386*%
%ADD14C,0.02*%
%ADD20C,0.014016*%
G04 #@! TA.AperFunction,CopperBalancing*
%ADD21C,0.025*%
G04 #@! TA.AperFunction,ComponentPad*
%ADD22C,0.07874*%
%ADD23R,0.07874X0.07874*%
%ADD32C,0.05*%
%ADD33C,0.059055*%
G04 #@! TA.AperFunction,ViaPad*
%ADD34C,0.031496*%
%FSLAX26Y26*%
G04*
G70*
G90*
G75*
G01*
G04 Bottom*
%LPD*%
X948672Y1516829D2*
D13*
Y1299584D1*
X945155Y1296067D1*
X668780Y1435129D2*
Y1283104D1*
X812682Y1139201D1*
X1193240Y2159442D2*
D14*
X1069898D1*
X1304255Y1829600D2*
Y1627117D1*
X1208471Y1597959D2*
X976252D1*
X916259Y1537966D1*
Y1471955D1*
Y1340512D1*
X899625Y1323878D1*
Y1006442D1*
X951052Y955014D1*
Y911398D1*
X913017Y1472189D2*
X916259Y1471955D1*
X1058866Y2253888D2*
X1276365D1*
X1502668Y2027585D1*
Y1418894D1*
X1171596Y1786008D2*
D13*
X1237285Y1720319D1*
Y1443282D1*
X752630Y1990030D2*
X751058Y1988459D1*
Y1563323D1*
X779119Y1535261D1*
X856428D1*
X750466Y2061840D2*
X723252Y2034626D1*
Y1556333D1*
X702047Y1535129D1*
X668780D1*
X1185394Y1293932D2*
D20*
X1210774Y1268551D1*
X1276785D1*
X1159789Y1247025D2*
D13*
X1200038Y1206776D1*
X1356014D1*
X1376785Y1227546D1*
Y1268551D1*
D34*
X948672Y1516829D3*
X945155Y1296067D3*
X1193240Y2159442D3*
X1069898D3*
X1304255Y1829600D3*
Y1627117D3*
X1208471Y1597959D3*
X951052Y911398D3*
X916259Y1340512D3*
X1171596Y1786008D3*
X1237285Y1443282D3*
X752630Y1990030D3*
X750466Y2061840D3*
X1185394Y1293932D3*
X1159789Y1247025D3*
X812682Y1139201D3*
X913017Y1472189D3*
X1058866Y2253888D3*
X412087Y2681511D2*
D21*
X1583622D1*
X412087Y2656642D2*
X1583622D1*
X412087Y2631774D2*
X1583622D1*
X412123Y2606905D2*
X1583658D1*
X412123Y2582036D2*
X1583658D1*
X412123Y2557167D2*
X1583658D1*
X412123Y2532299D2*
X1583658D1*
X412159Y2507430D2*
X1583694D1*
X412159Y2482561D2*
X1583694D1*
X412159Y2457692D2*
X1583694D1*
X412159Y2432823D2*
X1583694D1*
X412195Y2407955D2*
X1583730D1*
X412195Y2383086D2*
X1583730D1*
X412195Y2358217D2*
X1583730D1*
X412195Y2333348D2*
X1583730D1*
X412231Y2308480D2*
X1583766D1*
X412231Y2283611D2*
X1026341D1*
X1300042D2*
X1583766D1*
X412231Y2258742D2*
X1014391D1*
X1325627D2*
X1583766D1*
X412231Y2233873D2*
X1019164D1*
X1350495D2*
X1583766D1*
X412267Y2209005D2*
X1267124D1*
X1375363D2*
X1583766D1*
X412267Y2184136D2*
X1033123D1*
X1229996D2*
X1292027D1*
X1400230D2*
X1583802D1*
X412267Y2159267D2*
X1025157D1*
X1237998D2*
X1316895D1*
X1425098D2*
X1583802D1*
X412267Y2134398D2*
X1033374D1*
X1229744D2*
X1341763D1*
X1449966D2*
X1583802D1*
X412303Y2109530D2*
X1366631D1*
X1474833D2*
X1583802D1*
X412303Y2084661D2*
X712426D1*
X788513D2*
X1391498D1*
X1499701D2*
X1583838D1*
X412303Y2059792D2*
X604486D1*
X795151D2*
X1416366D1*
X1524569D2*
X1583838D1*
X412303Y2034923D2*
X595408D1*
X785534D2*
X1441234D1*
X1540932D2*
X1583838D1*
X412339Y2010054D2*
X599355D1*
X792316D2*
X1463661D1*
X1541650D2*
X1583838D1*
X412339Y1985186D2*
X621890D1*
X797089D2*
X1463661D1*
X1541650D2*
X1583873D1*
X412339Y1960317D2*
X687558D1*
X786754D2*
X1463661D1*
X1541650D2*
X1583873D1*
X412339Y1935448D2*
X687558D1*
X786754D2*
X1463661D1*
X1541650D2*
X1583873D1*
X412374Y1910579D2*
X687558D1*
X786754D2*
X1463661D1*
X1541650D2*
X1583873D1*
X412374Y1885711D2*
X626878D1*
X671494D2*
X687558D1*
X786754D2*
X1463661D1*
X1541650D2*
X1583909D1*
X412374Y1860842D2*
X600467D1*
X786754D2*
X1273332D1*
X1335172D2*
X1463661D1*
X1541650D2*
X1583909D1*
X412374Y1835973D2*
X595264D1*
X786754D2*
X1259983D1*
X1348521D2*
X1463661D1*
X1541650D2*
X1583909D1*
X412410Y1811104D2*
X602907D1*
X786754D2*
X1135106D1*
X1208070D2*
X1263786D1*
X1344717D2*
X1463661D1*
X1541650D2*
X1583909D1*
X412410Y1786236D2*
X687558D1*
X786754D2*
X1126852D1*
X1220809D2*
X1265258D1*
X1343246D2*
X1463661D1*
X1541650D2*
X1583945D1*
X412410Y1761367D2*
X687558D1*
X786754D2*
X1134783D1*
X1245677D2*
X1265258D1*
X1343246D2*
X1463661D1*
X1541650D2*
X1583945D1*
X412410Y1736498D2*
X687558D1*
X786754D2*
X1171672D1*
X1343246D2*
X1463661D1*
X1541650D2*
X1583945D1*
X412446Y1711629D2*
X687558D1*
X786754D2*
X1196540D1*
X1343246D2*
X1463661D1*
X1541650D2*
X1583945D1*
X412446Y1686760D2*
X600431D1*
X924801D2*
X1201599D1*
X1343246D2*
X1463661D1*
X1541650D2*
X1583945D1*
X412446Y1661892D2*
X600431D1*
X924801D2*
X1201599D1*
X1343246D2*
X1463661D1*
X1541650D2*
X1583981D1*
X412446Y1637023D2*
X600431D1*
X924801D2*
X1189901D1*
X1347803D2*
X1463661D1*
X1541650D2*
X1583981D1*
X412482Y1612154D2*
X600431D1*
X1346260D2*
X1463661D1*
X1541650D2*
X1583981D1*
X412482Y1587285D2*
X600431D1*
X1272985D2*
X1287685D1*
X1320819D2*
X1463661D1*
X1541650D2*
X1583981D1*
X412482Y1562417D2*
X606352D1*
X1272985D2*
X1463661D1*
X1541650D2*
X1584017D1*
X412482Y1537548D2*
X600467D1*
X987993D2*
X1201599D1*
X1272985D2*
X1463661D1*
X1541650D2*
X1584017D1*
X412518Y1512679D2*
X604379D1*
X733215D2*
X752257D1*
X993196D2*
X1201599D1*
X1272985D2*
X1463661D1*
X1541650D2*
X1584017D1*
X412518Y1487810D2*
X620455D1*
X717103D2*
X808237D1*
X984368D2*
X1201599D1*
X1272985D2*
X1463661D1*
X1541650D2*
X1584017D1*
X412518Y1462942D2*
X425604D1*
X524333D2*
X606568D1*
X730990D2*
X794170D1*
X984368D2*
X1197401D1*
X1277183D2*
X1451210D1*
X1554138D2*
X1584053D1*
X539763Y1438073D2*
X600467D1*
X737090D2*
X788142D1*
X984368D2*
X1192879D1*
X1281705D2*
X1437143D1*
X1568168D2*
X1584053D1*
X543244Y1413204D2*
X604163D1*
X733394D2*
X791874D1*
X984368D2*
X1205116D1*
X1269432D2*
X1434559D1*
X1570788D2*
X1584053D1*
X536928Y1388335D2*
X619917D1*
X717641D2*
X807698D1*
X984368D2*
X1441808D1*
X1563503D2*
X1584053D1*
X412554Y1363467D2*
X426142D1*
X523795D2*
X633086D1*
X704472D2*
X877278D1*
X984368D2*
X1464594D1*
X1540753D2*
X1584089D1*
X539548Y1338598D2*
X633086D1*
X704472D2*
X863750D1*
X984368D2*
X1584089D1*
X543280Y1313729D2*
X633086D1*
X704472D2*
X860628D1*
X986019D2*
X1145584D1*
X1225223D2*
X1241144D1*
X1312422D2*
X1341153D1*
X1412395D2*
X1584089D1*
X537180Y1288860D2*
X633086D1*
X712438D2*
X860628D1*
X989285D2*
X1140955D1*
X1431485D2*
X1584089D1*
X412590Y1263991D2*
X426680D1*
X523257D2*
X639150D1*
X737306D2*
X860628D1*
X975146D2*
X1118599D1*
X1435110D2*
X1584125D1*
X539369Y1239123D2*
X663336D1*
X762174D2*
X860628D1*
X938616D2*
X1115800D1*
X1426964D2*
X1584125D1*
X543280Y1214254D2*
X688204D1*
X787077D2*
X860628D1*
X938616D2*
X1130620D1*
X1409704D2*
X1584125D1*
X537431Y1189385D2*
X713072D1*
X811945D2*
X860628D1*
X938616D2*
X1168012D1*
X1388066D2*
X1584125D1*
X412626Y1164516D2*
X427218D1*
X522718D2*
X737940D1*
X938616D2*
X1452681D1*
X1552666D2*
X1584125D1*
X539189Y1139648D2*
X762807D1*
X938616D2*
X1437645D1*
X1567666D2*
X1584160D1*
X543316Y1114779D2*
X775726D1*
X938616D2*
X1434452D1*
X1570895D2*
X1584160D1*
X537646Y1089910D2*
X860628D1*
X938616D2*
X1441018D1*
X1564293D2*
X1584160D1*
X412662Y1065041D2*
X427793D1*
X522144D2*
X860628D1*
X938616D2*
X1453183D1*
X1552164D2*
X1584160D1*
X538974Y1040173D2*
X860628D1*
X938616D2*
X1437825D1*
X1567486D2*
X1584196D1*
X543316Y1015304D2*
X860628D1*
X944860D2*
X1434416D1*
X1570931D2*
X1584196D1*
X537897Y990435D2*
X864324D1*
X969728D2*
X1440767D1*
X1564580D2*
X1584196D1*
X412697Y965566D2*
X428367D1*
X521570D2*
X886392D1*
X988495D2*
X1453686D1*
X1551626D2*
X1584196D1*
X538794Y940698D2*
X911260D1*
X990038D2*
X1438004D1*
X1567307D2*
X1584232D1*
X543316Y915829D2*
X906559D1*
X995564D2*
X1434380D1*
X1570967D2*
X1584232D1*
X538113Y890960D2*
X911583D1*
X990505D2*
X1440516D1*
X1564795D2*
X1584232D1*
X412733Y866091D2*
X428941D1*
X520996D2*
X1454224D1*
X1551087D2*
X1584232D1*
X538579Y841222D2*
X1438220D1*
X1567128D2*
X1584268D1*
X543316Y816354D2*
X1434344D1*
X1570967D2*
X1584268D1*
X538328Y791485D2*
X1440265D1*
X1565046D2*
X1584268D1*
X412769Y766616D2*
X429551D1*
X520386D2*
X1454762D1*
X1550549D2*
X1584268D1*
X538364Y741747D2*
X1438399D1*
X1566948D2*
X1584304D1*
X543316Y716879D2*
X1434344D1*
X1571003D2*
X1584304D1*
X538543Y692010D2*
X1440050D1*
X1565298D2*
X1584304D1*
X412805Y667141D2*
X429013D1*
X520888D2*
X1455336D1*
X1550011D2*
X1584304D1*
X538149Y642272D2*
X1438578D1*
X1566733D2*
X1584340D1*
X543316Y617404D2*
X1434308D1*
X1571003D2*
X1584340D1*
X538759Y592535D2*
X1439798D1*
X1565513D2*
X1584340D1*
X412841Y567666D2*
X428438D1*
X521498D2*
X1455910D1*
X1549437D2*
X1584340D1*
X537897Y542797D2*
X1438794D1*
X1566553D2*
X1584340D1*
X543316Y517928D2*
X1434308D1*
X1571039D2*
X1584376D1*
X538974Y493060D2*
X1439583D1*
X1565764D2*
X1584376D1*
X412877Y468191D2*
X427864D1*
X522072D2*
X1458135D1*
X1547212D2*
X1584376D1*
X412877Y443322D2*
X1584376D1*
X412877Y418453D2*
X1584412D1*
X540625Y511482D2*
X539008Y501274D1*
X535815Y491445D1*
X531123Y482237D1*
X525048Y473876D1*
X517740Y466568D1*
X509379Y460493D1*
X500170Y455801D1*
X490341Y452607D1*
X480133Y450990D1*
X469798D1*
X459591Y452607D1*
X449762Y455801D1*
X440553Y460493D1*
X432192Y466568D1*
X424884Y473876D1*
X418809Y482237D1*
X414117Y491445D1*
X410923Y501274D1*
X410368Y504068D1*
X410397Y411405D1*
X1586921Y410515D1*
X1586111Y2704544D1*
X409579Y2706361D1*
X410033Y1427645D1*
X412327Y1437002D1*
X416282Y1446550D1*
X421682Y1455362D1*
X428394Y1463221D1*
X436253Y1469933D1*
X445065Y1475333D1*
X454613Y1479288D1*
X464663Y1481701D1*
X474966Y1482512D1*
X485269Y1481701D1*
X495318Y1479288D1*
X504867Y1475333D1*
X513679Y1469933D1*
X521537Y1463221D1*
X528250Y1455362D1*
X533650Y1446550D1*
X537605Y1437002D1*
X540017Y1426953D1*
X540828Y1416650D1*
X540017Y1406346D1*
X537605Y1396297D1*
X533650Y1386749D1*
X528250Y1377937D1*
X521537Y1370078D1*
X517844Y1366664D1*
X525048Y1359424D1*
X531123Y1351063D1*
X535815Y1341854D1*
X539008Y1332025D1*
X540625Y1321817D1*
Y1311482D1*
X539008Y1301274D1*
X535815Y1291445D1*
X531123Y1282237D1*
X525048Y1273876D1*
X517844Y1266664D1*
X525048Y1259424D1*
X531123Y1251063D1*
X535815Y1241854D1*
X539008Y1232025D1*
X540625Y1221817D1*
Y1211482D1*
X539008Y1201274D1*
X535815Y1191445D1*
X531123Y1182237D1*
X525048Y1173876D1*
X517844Y1166664D1*
X525048Y1159424D1*
X531123Y1151063D1*
X535815Y1141854D1*
X539008Y1132025D1*
X540625Y1121817D1*
Y1111482D1*
X539008Y1101274D1*
X535815Y1091445D1*
X531123Y1082237D1*
X525048Y1073876D1*
X517844Y1066664D1*
X525048Y1059424D1*
X531123Y1051063D1*
X535815Y1041854D1*
X539008Y1032025D1*
X540625Y1021817D1*
Y1011482D1*
X539008Y1001274D1*
X535815Y991445D1*
X531123Y982237D1*
X525048Y973876D1*
X517844Y966664D1*
X525048Y959424D1*
X531123Y951063D1*
X535815Y941854D1*
X539008Y932025D1*
X540625Y921817D1*
Y911482D1*
X539008Y901274D1*
X535815Y891445D1*
X531123Y882237D1*
X525048Y873876D1*
X517844Y866664D1*
X525048Y859424D1*
X531123Y851063D1*
X535815Y841854D1*
X539008Y832025D1*
X540625Y821817D1*
Y811482D1*
X539008Y801274D1*
X535815Y791445D1*
X531123Y782237D1*
X525048Y773876D1*
X517844Y766664D1*
X525048Y759424D1*
X531123Y751063D1*
X535815Y741854D1*
X539008Y732025D1*
X540625Y721817D1*
Y711482D1*
X539008Y701274D1*
X535815Y691445D1*
X531123Y682237D1*
X525048Y673876D1*
X517844Y666664D1*
X525048Y659424D1*
X531123Y651063D1*
X535815Y641854D1*
X539008Y632025D1*
X540625Y621817D1*
Y611482D1*
X539008Y601274D1*
X535815Y591445D1*
X531123Y582237D1*
X525048Y573876D1*
X517844Y566664D1*
X525048Y559424D1*
X531123Y551063D1*
X535815Y541854D1*
X539008Y532025D1*
X540625Y521817D1*
Y511482D1*
X410352Y529152D2*
X412327Y537002D1*
X416282Y546550D1*
X421682Y555362D1*
X428394Y563221D1*
X432088Y566636D1*
X424884Y573876D1*
X418809Y582237D1*
X414117Y591445D1*
X410923Y601274D1*
X410328Y604266D1*
X410355Y529392D1*
X410320Y628993D2*
X412327Y637002D1*
X416282Y646550D1*
X421682Y655362D1*
X428394Y663221D1*
X432088Y666636D1*
X424884Y673876D1*
X418809Y682237D1*
X414117Y691445D1*
X410923Y701274D1*
X410289Y704464D1*
X410319Y629222D1*
X410281Y728795D2*
X412327Y737002D1*
X416282Y746550D1*
X421682Y755362D1*
X428394Y763221D1*
X432088Y766636D1*
X424884Y773876D1*
X418809Y782237D1*
X414117Y791445D1*
X410923Y801274D1*
X410257Y804623D1*
X410283Y729051D1*
X410250Y828637D2*
X412327Y837002D1*
X416282Y846550D1*
X421682Y855362D1*
X428394Y863221D1*
X432088Y866636D1*
X424884Y873876D1*
X418809Y882237D1*
X414117Y891445D1*
X410923Y901274D1*
X410218Y904821D1*
X410248Y828881D1*
X410210Y928439D2*
X412327Y937002D1*
X416282Y946550D1*
X421682Y955362D1*
X428394Y963221D1*
X432088Y966636D1*
X424884Y973876D1*
X418809Y982237D1*
X414117Y991445D1*
X410923Y1001274D1*
X410186Y1004979D1*
X410212Y928711D1*
X410179Y1028280D2*
X412327Y1037002D1*
X416282Y1046550D1*
X421682Y1055362D1*
X428394Y1063221D1*
X432088Y1066636D1*
X424884Y1073876D1*
X418809Y1082237D1*
X414117Y1091445D1*
X410923Y1101274D1*
X410147Y1105178D1*
X410176Y1028469D1*
X410139Y1128082D2*
X412327Y1137002D1*
X416282Y1146550D1*
X421682Y1155362D1*
X428394Y1163221D1*
X432088Y1166636D1*
X424884Y1173876D1*
X418809Y1182237D1*
X414117Y1191445D1*
X410923Y1201274D1*
X410116Y1205336D1*
X410140Y1128299D1*
X410108Y1227924D2*
X412327Y1237002D1*
X416282Y1246550D1*
X421682Y1255362D1*
X428394Y1263221D1*
X432088Y1266636D1*
X424884Y1273876D1*
X418809Y1282237D1*
X414117Y1291445D1*
X410923Y1301274D1*
X410076Y1305534D1*
X410104Y1228057D1*
X410068Y1327725D2*
X412327Y1337002D1*
X416282Y1346550D1*
X421682Y1355362D1*
X428394Y1363221D1*
X432088Y1366636D1*
X424884Y1373876D1*
X418809Y1382237D1*
X414117Y1391445D1*
X410923Y1401274D1*
X410041Y1405289D1*
X410069Y1327887D1*
X1568327Y513726D2*
X1566710Y503518D1*
X1563517Y493689D1*
X1558825Y484481D1*
X1552750Y476120D1*
X1545442Y468812D1*
X1537081Y462737D1*
X1527872Y458045D1*
X1518043Y454851D1*
X1507835Y453235D1*
X1497500D1*
X1487293Y454851D1*
X1477464Y458045D1*
X1468255Y462737D1*
X1459894Y468812D1*
X1452586Y476120D1*
X1446511Y484481D1*
X1441819Y493689D1*
X1438626Y503518D1*
X1437009Y513726D1*
Y524061D1*
X1438626Y534269D1*
X1441819Y544098D1*
X1446511Y553307D1*
X1452586Y561668D1*
X1459790Y568880D1*
X1452586Y576120D1*
X1446511Y584481D1*
X1441819Y593689D1*
X1438626Y603518D1*
X1437009Y613726D1*
Y624061D1*
X1438626Y634269D1*
X1441819Y644098D1*
X1446511Y653307D1*
X1452586Y661668D1*
X1459790Y668880D1*
X1452586Y676120D1*
X1446511Y684481D1*
X1441819Y693689D1*
X1438626Y703518D1*
X1437009Y713726D1*
Y724061D1*
X1438626Y734269D1*
X1441819Y744098D1*
X1446511Y753307D1*
X1452586Y761668D1*
X1459790Y768880D1*
X1452586Y776120D1*
X1446511Y784481D1*
X1441819Y793689D1*
X1438626Y803518D1*
X1437009Y813726D1*
Y824061D1*
X1438626Y834269D1*
X1441819Y844098D1*
X1446511Y853307D1*
X1452586Y861668D1*
X1459790Y868880D1*
X1452586Y876120D1*
X1446511Y884481D1*
X1441819Y893689D1*
X1438626Y903518D1*
X1437009Y913726D1*
Y924061D1*
X1438626Y934269D1*
X1441819Y944098D1*
X1446511Y953307D1*
X1452586Y961668D1*
X1459790Y968880D1*
X1452586Y976120D1*
X1446511Y984481D1*
X1441819Y993689D1*
X1438626Y1003518D1*
X1437009Y1013726D1*
Y1024061D1*
X1438626Y1034269D1*
X1441819Y1044098D1*
X1446511Y1053307D1*
X1452586Y1061668D1*
X1459790Y1068880D1*
X1452586Y1076120D1*
X1446511Y1084481D1*
X1441819Y1093689D1*
X1438626Y1103518D1*
X1437009Y1113726D1*
Y1124061D1*
X1438626Y1134269D1*
X1441819Y1144098D1*
X1446511Y1153307D1*
X1452586Y1161668D1*
X1459894Y1168976D1*
X1468255Y1175050D1*
X1477464Y1179742D1*
X1487293Y1182936D1*
X1497500Y1184553D1*
X1507835D1*
X1518043Y1182936D1*
X1527872Y1179742D1*
X1537081Y1175050D1*
X1545442Y1168976D1*
X1552750Y1161668D1*
X1558825Y1153307D1*
X1563517Y1144098D1*
X1566710Y1134269D1*
X1568327Y1124061D1*
Y1113726D1*
X1566710Y1103518D1*
X1563517Y1093689D1*
X1558825Y1084481D1*
X1552750Y1076120D1*
X1545546Y1068908D1*
X1552750Y1061668D1*
X1558825Y1053307D1*
X1563517Y1044098D1*
X1566710Y1034269D1*
X1568327Y1024061D1*
Y1013726D1*
X1566710Y1003518D1*
X1563517Y993689D1*
X1558825Y984481D1*
X1552750Y976120D1*
X1545546Y968908D1*
X1552750Y961668D1*
X1558825Y953307D1*
X1563517Y944098D1*
X1566710Y934269D1*
X1568327Y924061D1*
Y913726D1*
X1566710Y903518D1*
X1563517Y893689D1*
X1558825Y884481D1*
X1552750Y876120D1*
X1545546Y868908D1*
X1552750Y861668D1*
X1558825Y853307D1*
X1563517Y844098D1*
X1566710Y834269D1*
X1568327Y824061D1*
Y813726D1*
X1566710Y803518D1*
X1563517Y793689D1*
X1558825Y784481D1*
X1552750Y776120D1*
X1545546Y768908D1*
X1552750Y761668D1*
X1558825Y753307D1*
X1563517Y744098D1*
X1566710Y734269D1*
X1568327Y724061D1*
Y713726D1*
X1566710Y703518D1*
X1563517Y693689D1*
X1558825Y684481D1*
X1552750Y676120D1*
X1545546Y668908D1*
X1552750Y661668D1*
X1558825Y653307D1*
X1563517Y644098D1*
X1566710Y634269D1*
X1568327Y624061D1*
Y613726D1*
X1566710Y603518D1*
X1563517Y593689D1*
X1558825Y584481D1*
X1552750Y576120D1*
X1545546Y568908D1*
X1552750Y561668D1*
X1558825Y553307D1*
X1563517Y544098D1*
X1566710Y534269D1*
X1568327Y524061D1*
Y513726D1*
Y1413726D2*
X1566710Y1403518D1*
X1563517Y1393689D1*
X1558825Y1384481D1*
X1552750Y1376120D1*
X1545442Y1368812D1*
X1537081Y1362737D1*
X1527872Y1358045D1*
X1518043Y1354851D1*
X1507835Y1353235D1*
X1497500D1*
X1487293Y1354851D1*
X1477464Y1358045D1*
X1468255Y1362737D1*
X1459894Y1368812D1*
X1452586Y1376120D1*
X1446511Y1384481D1*
X1441819Y1393689D1*
X1438626Y1403518D1*
X1437009Y1413726D1*
Y1424061D1*
X1438626Y1434269D1*
X1441819Y1444098D1*
X1446511Y1453307D1*
X1452586Y1461668D1*
X1459894Y1468976D1*
X1466189Y1473670D1*
X1466176Y2012490D1*
X1261268Y2217377D1*
X1080167Y2217396D1*
X1075031Y2214864D1*
X1068727Y2212815D1*
X1062180Y2211779D1*
X1055552D1*
X1049005Y2212815D1*
X1042702Y2214864D1*
X1036796Y2217873D1*
X1031433Y2221769D1*
X1026746Y2226456D1*
X1022850Y2231818D1*
X1019841Y2237724D1*
X1017793Y2244028D1*
X1016756Y2250574D1*
Y2257203D1*
X1017793Y2263749D1*
X1019841Y2270053D1*
X1022850Y2275959D1*
X1026746Y2281321D1*
X1031433Y2286008D1*
X1036796Y2289904D1*
X1042702Y2292913D1*
X1049005Y2294962D1*
X1055552Y2295998D1*
X1062180D1*
X1068727Y2294962D1*
X1075031Y2292913D1*
X1080089Y2290379D1*
X1279228Y2290268D1*
X1284884Y2289372D1*
X1290330Y2287603D1*
X1295432Y2285003D1*
X1300065Y2281637D1*
X1334438Y2247423D1*
X1530417Y2051285D1*
X1533783Y2046653D1*
X1536382Y2041550D1*
X1538152Y2036104D1*
X1539048Y2030449D1*
X1539160Y1981617D1*
Y1473749D1*
X1545442Y1468976D1*
X1552750Y1461668D1*
X1558825Y1453307D1*
X1563517Y1444098D1*
X1566710Y1434269D1*
X1568327Y1424061D1*
Y1413726D1*
X612104Y1700991D2*
X690080D1*
X690067Y1806852D1*
X685605Y1801769D1*
X679461Y1796522D1*
X672571Y1792300D1*
X665106Y1789208D1*
X657249Y1787322D1*
X649194Y1786688D1*
X641139Y1787322D1*
X633282Y1789208D1*
X625817Y1792300D1*
X618928Y1796522D1*
X612784Y1801769D1*
X607536Y1807913D1*
X603314Y1814803D1*
X600222Y1822268D1*
X598336Y1830125D1*
X597702Y1838180D1*
X598336Y1846235D1*
X600222Y1854092D1*
X603314Y1861557D1*
X607536Y1868446D1*
X612784Y1874590D1*
X618928Y1879838D1*
X625817Y1884060D1*
X633282Y1887152D1*
X641139Y1889038D1*
X649194Y1889672D1*
X657249Y1889038D1*
X665106Y1887152D1*
X672571Y1884060D1*
X679461Y1879838D1*
X685605Y1874590D1*
X690060Y1869451D1*
X690067Y1998976D1*
X685605Y1993895D1*
X679461Y1988648D1*
X672571Y1984426D1*
X665106Y1981334D1*
X657249Y1979448D1*
X649194Y1978814D1*
X641139Y1979448D1*
X633282Y1981334D1*
X625817Y1984426D1*
X618928Y1988648D1*
X612784Y1993895D1*
X607536Y2000039D1*
X603314Y2006929D1*
X600222Y2014394D1*
X598336Y2022251D1*
X597702Y2030306D1*
X598336Y2038361D1*
X600222Y2046218D1*
X603314Y2053683D1*
X607536Y2060572D1*
X612784Y2066716D1*
X618928Y2071964D1*
X625817Y2076186D1*
X633282Y2079278D1*
X641139Y2081164D1*
X649194Y2081798D1*
X657249Y2081164D1*
X665106Y2079278D1*
X672571Y2076186D1*
X679461Y2071964D1*
X685605Y2066716D1*
X690852Y2060572D1*
X695074Y2053683D1*
X695477Y2052808D1*
X699794Y2058098D1*
X708544Y2066849D1*
X709393Y2071701D1*
X711441Y2078005D1*
X714450Y2083910D1*
X718346Y2089273D1*
X723033Y2093960D1*
X728395Y2097856D1*
X734301Y2100865D1*
X740605Y2102913D1*
X747152Y2103950D1*
X753780D1*
X760327Y2102913D1*
X766630Y2100865D1*
X772536Y2097856D1*
X777899Y2093960D1*
X782586Y2089273D1*
X786482Y2083910D1*
X789491Y2078005D1*
X791539Y2071701D1*
X792576Y2065154D1*
Y2058526D1*
X791539Y2051979D1*
X789491Y2045675D1*
X786482Y2039769D1*
X782586Y2034407D1*
X777899Y2029720D1*
X773732Y2026623D1*
X780063Y2022150D1*
X784750Y2017463D1*
X788646Y2012101D1*
X791655Y2006195D1*
X793703Y1999891D1*
X794740Y1993344D1*
Y1986716D1*
X793703Y1980169D1*
X791655Y1973866D1*
X788646Y1967960D1*
X784248Y1962055D1*
X784243Y1577063D1*
X790546Y1570765D1*
X793681Y1569399D1*
X791917D1*
X799512Y1568446D1*
X790566Y1587772D1*
Y1701123D1*
X922290D1*
X922437Y1595752D1*
X952552Y1625708D1*
X957185Y1629074D1*
X962287Y1631674D1*
X967733Y1633443D1*
X973389Y1634339D1*
X1021929Y1634452D1*
X1187176D1*
X1192307Y1636984D1*
X1198610Y1639032D1*
X1204089Y1639943D1*
X1204100Y1706541D1*
X1166627Y1744046D1*
X1161735Y1744935D1*
X1155431Y1746983D1*
X1149525Y1749992D1*
X1144163Y1753888D1*
X1139476Y1758575D1*
X1135580Y1763937D1*
X1132571Y1769843D1*
X1130523Y1776147D1*
X1129486Y1782694D1*
Y1789322D1*
X1130523Y1795869D1*
X1132571Y1802172D1*
X1135580Y1808078D1*
X1139476Y1813441D1*
X1144163Y1818128D1*
X1149525Y1822024D1*
X1155431Y1825033D1*
X1161735Y1827081D1*
X1168282Y1828118D1*
X1174910D1*
X1181457Y1827081D1*
X1187760Y1825033D1*
X1193666Y1822024D1*
X1199029Y1818128D1*
X1203715Y1813441D1*
X1207611Y1808078D1*
X1210621Y1802172D1*
X1212669Y1795869D1*
X1213503Y1791033D1*
X1262519Y1741871D1*
X1265580Y1737658D1*
X1266857Y1735375D1*
X1267762Y1737370D1*
Y1808313D1*
X1265230Y1813435D1*
X1263182Y1819739D1*
X1262145Y1826286D1*
Y1832914D1*
X1263182Y1839461D1*
X1265230Y1845764D1*
X1268239Y1851670D1*
X1272135Y1857033D1*
X1276822Y1861719D1*
X1282184Y1865615D1*
X1288090Y1868625D1*
X1294394Y1870673D1*
X1300940Y1871710D1*
X1307569D1*
X1314115Y1870673D1*
X1320419Y1868625D1*
X1326325Y1865615D1*
X1331687Y1861719D1*
X1336374Y1857033D1*
X1340270Y1851670D1*
X1343279Y1845764D1*
X1345328Y1839461D1*
X1346365Y1832914D1*
Y1826286D1*
X1345328Y1819739D1*
X1343279Y1813435D1*
X1340745Y1808377D1*
X1340747Y1648403D1*
X1343279Y1643281D1*
X1345328Y1636978D1*
X1346365Y1630431D1*
Y1623803D1*
X1345328Y1617256D1*
X1343279Y1610952D1*
X1340270Y1605046D1*
X1336374Y1599684D1*
X1331687Y1594997D1*
X1326325Y1591101D1*
X1320419Y1588092D1*
X1314115Y1586044D1*
X1307569Y1585007D1*
X1300940D1*
X1294394Y1586044D1*
X1288090Y1588092D1*
X1282184Y1591101D1*
X1276822Y1594997D1*
X1272135Y1599684D1*
X1270475Y1601790D1*
X1270470Y1469404D1*
X1273300Y1465353D1*
X1276310Y1459447D1*
X1278358Y1453143D1*
X1279395Y1446596D1*
Y1439968D1*
X1278358Y1433421D1*
X1276310Y1427118D1*
X1273300Y1421212D1*
X1269404Y1415849D1*
X1264718Y1411162D1*
X1259355Y1407266D1*
X1253449Y1404257D1*
X1247146Y1402209D1*
X1240599Y1401172D1*
X1233971D1*
X1227424Y1402209D1*
X1221120Y1404257D1*
X1215214Y1407266D1*
X1209852Y1411162D1*
X1205165Y1415849D1*
X1201269Y1421212D1*
X1198260Y1427118D1*
X1196212Y1433421D1*
X1195175Y1439968D1*
Y1446596D1*
X1196212Y1453143D1*
X1198260Y1459447D1*
X1201269Y1465353D1*
X1204098Y1469362D1*
X1204100Y1555971D1*
X1198610Y1556886D1*
X1192307Y1558935D1*
X1187248Y1561469D1*
X991375Y1561467D1*
X977559Y1547658D1*
X982845Y1541658D1*
X986308Y1536006D1*
X988845Y1529882D1*
X990392Y1523437D1*
X990912Y1516829D1*
X990392Y1510222D1*
X988845Y1503776D1*
X986308Y1497653D1*
X982845Y1492001D1*
X981858Y1490750D1*
X981857Y1316981D1*
X984180Y1312232D1*
X986228Y1305928D1*
X987265Y1299381D1*
Y1292753D1*
X986228Y1286206D1*
X984180Y1279902D1*
X981171Y1273997D1*
X977275Y1268634D1*
X972588Y1263947D1*
X967225Y1260051D1*
X961319Y1257042D1*
X955016Y1254994D1*
X948469Y1253957D1*
X941841D1*
X936120Y1254830D1*
X936117Y1021564D1*
X978801Y978714D1*
X982167Y974082D1*
X984767Y968979D1*
X986536Y963533D1*
X987432Y957878D1*
X987545Y932638D1*
X990077Y927562D1*
X992126Y921258D1*
X993162Y914712D1*
Y908084D1*
X992126Y901537D1*
X990077Y895233D1*
X987068Y889327D1*
X983172Y883965D1*
X978485Y879278D1*
X973123Y875382D1*
X967217Y872373D1*
X960913Y870325D1*
X954367Y869288D1*
X947738D1*
X941192Y870325D1*
X934888Y872373D1*
X928982Y875382D1*
X923620Y879278D1*
X918933Y883965D1*
X915037Y889327D1*
X912028Y895233D1*
X909979Y901537D1*
X908943Y908084D1*
Y914712D1*
X909979Y921258D1*
X912028Y927562D1*
X914562Y932620D1*
X914560Y939875D1*
X871876Y982742D1*
X868510Y987375D1*
X865910Y992477D1*
X864141Y997923D1*
X863245Y1003579D1*
X863132Y1052005D1*
X863245Y1326741D1*
X864141Y1332397D1*
X865910Y1337843D1*
X868510Y1342945D1*
X871876Y1347578D1*
X873829Y1349689D1*
X876086Y1353565D1*
X878622Y1359688D1*
X879768Y1361734D1*
X879766Y1373692D1*
X871803Y1371219D1*
X861595Y1369602D1*
X851260D1*
X841053Y1371219D1*
X831223Y1374412D1*
X822015Y1379104D1*
X813654Y1385179D1*
X806346Y1392487D1*
X800271Y1400848D1*
X795579Y1410057D1*
X792385Y1419886D1*
X790769Y1430094D1*
Y1440429D1*
X792385Y1450636D1*
X795579Y1460466D1*
X800271Y1469674D1*
X806346Y1478035D1*
X813550Y1485247D1*
X806346Y1492487D1*
X800271Y1500848D1*
X799590Y1502064D1*
X776516Y1502178D1*
X771373Y1502993D1*
X766420Y1504602D1*
X761780Y1506966D1*
X757567Y1510027D1*
X740646Y1526804D1*
X732561Y1518711D1*
X729628Y1509924D1*
X724936Y1500716D1*
X718862Y1492355D1*
X711657Y1485143D1*
X718862Y1477903D1*
X724936Y1469542D1*
X729628Y1460333D1*
X732822Y1450504D1*
X734439Y1440296D1*
Y1429961D1*
X732822Y1419753D1*
X729628Y1409924D1*
X724936Y1400716D1*
X718862Y1392355D1*
X711554Y1385047D1*
X703192Y1378972D1*
X701976Y1378291D1*
X701965Y1296818D1*
X817663Y1181151D1*
X822543Y1180274D1*
X828847Y1178226D1*
X834753Y1175216D1*
X840115Y1171320D1*
X844802Y1166634D1*
X848698Y1161271D1*
X851707Y1155365D1*
X853755Y1149062D1*
X854792Y1142515D1*
Y1135887D1*
X853755Y1129340D1*
X851707Y1123036D1*
X848698Y1117130D1*
X844802Y1111768D1*
X840115Y1107081D1*
X834753Y1103185D1*
X828847Y1100176D1*
X822543Y1098128D1*
X815997Y1097091D1*
X809368D1*
X802822Y1098128D1*
X796518Y1100176D1*
X790612Y1103185D1*
X785250Y1107081D1*
X780563Y1111768D1*
X776667Y1117130D1*
X773658Y1123036D1*
X771609Y1129340D1*
X770775Y1134175D1*
X643545Y1261552D1*
X640485Y1265765D1*
X638121Y1270404D1*
X636511Y1275357D1*
X635697Y1280500D1*
X635594Y1337481D1*
Y1378210D1*
X630067Y1381845D1*
X622208Y1388557D1*
X615496Y1396416D1*
X610096Y1405228D1*
X606141Y1414776D1*
X603728Y1424825D1*
X602917Y1435129D1*
X603728Y1445432D1*
X606141Y1455481D1*
X610096Y1465029D1*
X615496Y1473841D1*
X622208Y1481700D1*
X625902Y1485115D1*
X618698Y1492355D1*
X612623Y1500716D1*
X607931Y1509924D1*
X604737Y1519753D1*
X603120Y1529961D1*
Y1540296D1*
X604737Y1550504D1*
X607931Y1560333D1*
X612475Y1569277D1*
X602917Y1569266D1*
Y1700991D1*
X612104D1*
X790566Y1570727D2*
Y1587772D1*
X1432632Y1264156D2*
X1431257Y1255474D1*
X1428540Y1247113D1*
X1424549Y1239281D1*
X1419382Y1232169D1*
X1413167Y1225953D1*
X1409698Y1223221D1*
X1408346Y1217291D1*
X1406353Y1212480D1*
X1403632Y1208040D1*
X1400243Y1204074D1*
X1377566Y1181541D1*
X1373354Y1178481D1*
X1368714Y1176117D1*
X1363761Y1174507D1*
X1358618Y1173693D1*
X1301417Y1173590D1*
X1197434Y1173693D1*
X1192291Y1174507D1*
X1187339Y1176117D1*
X1182699Y1178481D1*
X1178486Y1181541D1*
X1154818Y1205065D1*
X1149928Y1205952D1*
X1143624Y1208000D1*
X1137718Y1211009D1*
X1132356Y1214905D1*
X1127669Y1219592D1*
X1123773Y1224955D1*
X1120764Y1230860D1*
X1118716Y1237164D1*
X1117679Y1243711D1*
Y1250339D1*
X1118716Y1256886D1*
X1120764Y1263190D1*
X1123773Y1269095D1*
X1127669Y1274458D1*
X1132356Y1279145D1*
X1137718Y1283041D1*
X1143879Y1286144D1*
X1143154Y1293932D1*
X1143674Y1300540D1*
X1145221Y1306985D1*
X1147757Y1313108D1*
X1151221Y1318760D1*
X1155525Y1323800D1*
X1160566Y1328105D1*
X1166217Y1331568D1*
X1172341Y1334105D1*
X1178786Y1335652D1*
X1185394Y1336172D1*
X1192002Y1335652D1*
X1198447Y1334105D1*
X1204570Y1331568D1*
X1210222Y1328105D1*
X1215262Y1323800D1*
X1219567Y1318760D1*
X1223030Y1313108D1*
X1225566Y1306985D1*
X1226813Y1302052D1*
X1231908Y1302051D1*
X1237173Y1308163D1*
X1243857Y1313872D1*
X1251352Y1318465D1*
X1259474Y1321829D1*
X1268021Y1323881D1*
X1276785Y1324571D1*
X1285548Y1323881D1*
X1294096Y1321829D1*
X1302217Y1318465D1*
X1309712Y1313872D1*
X1316397Y1308163D1*
X1322106Y1301479D1*
X1326778Y1293812D1*
X1331464Y1301479D1*
X1337173Y1308163D1*
X1343857Y1313872D1*
X1351352Y1318465D1*
X1359474Y1321829D1*
X1368021Y1323881D1*
X1376785Y1324571D1*
X1385548Y1323881D1*
X1394096Y1321829D1*
X1402217Y1318465D1*
X1409712Y1313872D1*
X1416397Y1308163D1*
X1422106Y1301479D1*
X1426699Y1293984D1*
X1430063Y1285862D1*
X1432115Y1277315D1*
X1432804Y1268551D1*
X1432632Y1264156D1*
X1171978Y2122950D2*
X1091167D1*
X1086062Y2120417D1*
X1079758Y2118369D1*
X1073212Y2117332D1*
X1066584D1*
X1060037Y2118369D1*
X1053733Y2120417D1*
X1047827Y2123427D1*
X1042465Y2127323D1*
X1037778Y2132009D1*
X1033882Y2137372D1*
X1030873Y2143278D1*
X1028825Y2149581D1*
X1027788Y2156128D1*
Y2162756D1*
X1028825Y2169303D1*
X1030873Y2175607D1*
X1033882Y2181513D1*
X1037778Y2186875D1*
X1042465Y2191562D1*
X1047827Y2195458D1*
X1053733Y2198467D1*
X1060037Y2200515D1*
X1066584Y2201552D1*
X1073212D1*
X1079758Y2200515D1*
X1086062Y2198467D1*
X1091120Y2195933D1*
X1171971Y2195934D1*
X1177076Y2198467D1*
X1183379Y2200515D1*
X1189926Y2201552D1*
X1196554D1*
X1203101Y2200515D1*
X1209405Y2198467D1*
X1215311Y2195458D1*
X1220673Y2191562D1*
X1225360Y2186875D1*
X1229256Y2181513D1*
X1232265Y2175607D1*
X1234313Y2169303D1*
X1235350Y2162756D1*
Y2156128D1*
X1234313Y2149581D1*
X1232265Y2143278D1*
X1229256Y2137372D1*
X1225360Y2132009D1*
X1220673Y2127323D1*
X1215311Y2123427D1*
X1209405Y2120417D1*
X1203101Y2118369D1*
X1196554Y2117332D1*
X1189926D1*
X1183379Y2118369D1*
X1177076Y2120417D1*
X1172018Y2122952D1*
D22*
X474966Y516650D3*
Y616650D3*
Y716650D3*
Y816650D3*
Y916650D3*
Y1016650D3*
Y1116650D3*
Y1216650D3*
Y1316650D3*
Y1416650D3*
X1502668Y518894D3*
Y618894D3*
Y718894D3*
Y818894D3*
Y918894D3*
Y1018894D3*
Y1118894D3*
Y1218894D3*
Y1318894D3*
Y1418894D3*
D23*
X668780Y1635129D3*
D22*
Y1535129D3*
Y1435129D3*
D23*
X856428Y1635261D3*
D22*
Y1535261D3*
Y1435261D3*
D32*
X649194Y1838180D3*
Y2030306D3*
D33*
X1376785Y1268551D3*
X1276785D3*
M02*
