G04 DipTrace 4.0.0.3*
G04 BottomSilk.gbr*
%MOIN*%
G04 #@! TF.FileFunction,Legend,Bot*
G04 #@! TF.Part,Single*
%ADD59C,0.015439*%
%ADD60C,0.006176*%
%FSLAX26Y26*%
G04*
G70*
G90*
G75*
G01*
G04 BotSilk*
%LPD*%
X1271000Y480630D2*
D59*
Y581110D1*
X1309246Y480630D1*
X1347493Y581110D1*
Y480630D1*
X1173134Y566740D2*
X1182641Y576357D1*
X1197011Y581110D1*
X1216134D1*
X1230504Y576357D1*
X1240121Y566740D1*
Y557234D1*
X1235257Y547617D1*
X1230504Y542864D1*
X1220998Y538110D1*
X1192258Y528494D1*
X1182641Y523740D1*
X1177888Y518877D1*
X1173134Y509370D1*
Y495000D1*
X1182641Y485494D1*
X1197011Y480630D1*
X1216134D1*
X1230504Y485494D1*
X1240121Y495000D1*
X1142256Y528494D2*
X1099146D1*
X1084886Y533247D1*
X1080022Y538110D1*
X1075269Y547617D1*
Y561987D1*
X1080022Y571493D1*
X1084886Y576357D1*
X1099146Y581110D1*
X1142256D1*
Y480630D1*
X1044391Y530815D2*
X989121D1*
X891256Y581110D2*
Y480630D1*
X958243Y581110D1*
Y480630D1*
X783774D2*
X822131Y581110D1*
X860377Y480630D1*
X846007Y514124D2*
X798144D1*
X685909Y581110D2*
Y480630D1*
X752895Y581110D1*
Y480630D1*
X626290Y581110D2*
X635907Y576357D1*
X645413Y566740D1*
X650277Y557234D1*
X655030Y542864D1*
Y518877D1*
X650277Y504617D1*
X645413Y495000D1*
X635907Y485494D1*
X626290Y480630D1*
X607167D1*
X597660Y485494D1*
X588044Y495000D1*
X583290Y504617D1*
X578537Y518877D1*
Y542864D1*
X583290Y557234D1*
X588044Y566740D1*
X597660Y576357D1*
X607167Y581110D1*
X626290D1*
X1512973Y2625407D2*
D60*
X1516776Y2629254D1*
X1522524Y2631155D1*
X1530173D1*
X1535921Y2629254D1*
X1539768Y2625407D1*
Y2621604D1*
X1537822Y2617757D1*
X1535921Y2615856D1*
X1532119Y2613955D1*
X1520623Y2610108D1*
X1516776Y2608207D1*
X1514875Y2606261D1*
X1512973Y2602459D1*
Y2596711D1*
X1516776Y2592908D1*
X1522524Y2590963D1*
X1530173D1*
X1535921Y2592908D1*
X1539768Y2596711D1*
X1469980Y2590963D2*
X1485323Y2631155D1*
X1500622Y2590963D1*
X1494874Y2604360D2*
X1475729D1*
X1430834Y2631155D2*
Y2590963D1*
X1457629Y2631155D1*
Y2590963D1*
X1418483Y2631155D2*
X1403184Y2612009D1*
Y2590963D1*
X1387886Y2631155D2*
X1403184Y2612009D1*
X1344893Y2590963D2*
X1360236Y2631155D1*
X1375534Y2590963D1*
X1369786Y2604360D2*
X1350641D1*
X1301944Y2590963D2*
Y2631155D1*
X1317243Y2590963D1*
X1332542Y2631155D1*
Y2590963D1*
X1220071D2*
X1235414Y2631155D1*
X1250712Y2590963D1*
X1244964Y2604360D2*
X1225819D1*
X1207719Y2612009D2*
X1190519D1*
X1184771Y2613955D1*
X1182826Y2615856D1*
X1180925Y2619659D1*
Y2623506D1*
X1182826Y2627308D1*
X1184771Y2629254D1*
X1190519Y2631155D1*
X1207719D1*
Y2590963D1*
X1194322Y2612009D2*
X1180925Y2590963D1*
X1157077Y2631155D2*
X1160924Y2629254D1*
X1164727Y2625407D1*
X1166672Y2621604D1*
X1168573Y2615856D1*
Y2606261D1*
X1166672Y2600558D1*
X1164727Y2596711D1*
X1160924Y2592908D1*
X1157077Y2590963D1*
X1149428D1*
X1145625Y2592908D1*
X1141779Y2596711D1*
X1139877Y2600558D1*
X1137976Y2606261D1*
Y2615856D1*
X1139877Y2621604D1*
X1141779Y2625407D1*
X1145625Y2629254D1*
X1149428Y2631155D1*
X1157077D1*
X1125625Y2612009D2*
X1108425D1*
X1102677Y2613955D1*
X1100731Y2615856D1*
X1098830Y2619659D1*
Y2623506D1*
X1100731Y2627308D1*
X1102677Y2629254D1*
X1108425Y2631155D1*
X1125625D1*
Y2590963D1*
X1112227Y2612009D2*
X1098830Y2590963D1*
X1055837D2*
X1071180Y2631155D1*
X1086479Y2590963D1*
X1080731Y2604360D2*
X1061585D1*
M02*
