M48
INCH
T01C0.0157
T02C0.0256
T03C0.0335
%
T01
X+008127Y+011392
X+009452Y+012961
X+009163Y+013405
X+009130Y+014722
X+009487Y+015168
X+012085Y+015980
X+013043Y+016271
X+012373Y+014433
X+011854Y+012939
X+011598Y+012470
X+009511Y+009114
X+011716Y+017860
X+013043Y+018296
X+011932Y+021594
X+010699Y+021594
X+010589Y+022539
X+007505Y+020618
X+007526Y+019900
T02
X+006492Y+018382
X+006492Y+020303
T03
X+004750Y+005166
X+004750Y+006166
X+004750Y+007166
X+004750Y+008166
X+004750Y+009166
X+004750Y+010166
X+004750Y+011166
X+004750Y+012166
X+004750Y+013166
X+004750Y+014166
X+006688Y+014351
X+006688Y+015351
X+006688Y+016351
X+008564Y+016353
X+008564Y+015353
X+008564Y+014353
X+012768Y+012686
X+013768Y+012686
X+015027Y+012189
X+015027Y+013189
X+015027Y+014189
X+015027Y+011189
X+015027Y+010189
X+015027Y+009189
X+015027Y+008189
X+015027Y+007189
X+015027Y+006189
X+015027Y+005189
T00
M30
