G04 DipTrace 4.0.0.3*
G04 TopSilk.gbr*
%MOIN*%
G04 #@! TF.FileFunction,Legend,Top*
G04 #@! TF.Part,Single*
%ADD10C,0.004724*%
%ADD27C,0.007874*%
%ADD29C,0.011811*%
%ADD55C,0.009264*%
%ADD56C,0.004632*%
%ADD57C,0.001544*%
%ADD58C,0.003088*%
%FSLAX26Y26*%
G04*
G70*
G90*
G75*
G01*
G04 TopSilk*
%LPD*%
X1159299Y1832915D2*
D10*
X1127803Y1832914D1*
X1243318Y1714089D2*
X1211822D1*
X1240037Y661310D2*
X1208541D1*
X524966Y1466650D2*
X424966D1*
X524966Y466650D2*
Y1466650D1*
Y466650D2*
X424966D1*
Y541650D1*
Y1466650D1*
X1552668Y1468894D2*
X1452668D1*
X1552668Y468894D2*
Y1468894D1*
Y468894D2*
X1452668D1*
Y543894D1*
Y1468894D1*
X618780Y1685129D2*
X718780D1*
Y1385129D1*
X618780D2*
X718780D1*
X618780Y1685129D2*
Y1385129D1*
X806428Y1685261D2*
X906428D1*
Y1385261D1*
X806428D2*
X906428D1*
X806428Y1685261D2*
Y1385261D1*
X1119662Y1719026D2*
X1079898Y1719025D1*
X1079900Y1663907D1*
X1158245Y1719027D2*
X1198008Y1719028D1*
X1198010Y1663910D1*
G36*
X1064940Y1639890D2*
X1065024Y1641175D1*
X1065275Y1642438D1*
X1065689Y1643657D1*
X1066258Y1644812D1*
X1066974Y1645882D1*
X1067822Y1646850D1*
X1068790Y1647699D1*
X1069861Y1648414D1*
X1071016Y1648984D1*
X1072235Y1649398D1*
X1073497Y1649649D1*
X1074782Y1649733D1*
X1076067Y1649649D1*
X1077330Y1649398D1*
X1078549Y1648984D1*
X1079703Y1648415D1*
X1080774Y1647699D1*
X1081742Y1646851D1*
X1082591Y1645883D1*
X1083306Y1644812D1*
X1083876Y1643657D1*
X1084289Y1642438D1*
X1084541Y1641176D1*
X1084625Y1639891D1*
D1*
X1084541Y1638606D1*
X1084290Y1637343D1*
X1083876Y1636124D1*
X1083306Y1634970D1*
X1082591Y1633899D1*
X1081742Y1632931D1*
X1080774Y1632082D1*
X1079704Y1631367D1*
X1078549Y1630797D1*
X1077330Y1630384D1*
X1076067Y1630132D1*
X1074783Y1630048D1*
X1073498Y1630132D1*
X1072235Y1630383D1*
X1071016Y1630797D1*
X1069861Y1631367D1*
X1068791Y1632082D1*
X1067823Y1632931D1*
X1066974Y1633899D1*
X1066259Y1634969D1*
X1065689Y1636124D1*
X1065275Y1637343D1*
X1065024Y1638606D1*
X1064940Y1639890D1*
D1*
G37*
X703492Y835255D2*
D10*
Y599038D1*
X845224Y835255D2*
Y599038D1*
Y835255D2*
X821597D1*
X703492D2*
X727119D1*
X703492Y599038D2*
X727119D1*
X821597D2*
X845224D1*
X829478Y835255D2*
Y815542D1*
X817672D1*
X734986D2*
X719239D1*
Y835255D1*
X801911Y772261D2*
X746806D1*
Y662031D1*
X801911D1*
Y772261D1*
G36*
X790105Y760427D2*
X758612D1*
Y673865D1*
X790105D1*
Y760427D1*
G37*
X786164Y756504D2*
D10*
X801911Y772261D1*
X786164Y677787D2*
X801911Y662031D1*
X762552Y677787D2*
X746806Y662031D1*
X762552Y756504D2*
X746806Y768339D1*
G36*
X761857Y885877D2*
X761964Y887508D1*
X762283Y889112D1*
X762809Y890661D1*
X763532Y892127D1*
X764440Y893487D1*
X765519Y894716D1*
X766748Y895795D1*
X768108Y896703D1*
X769574Y897426D1*
X771123Y897952D1*
X772727Y898271D1*
X774358Y898378D1*
X775990Y898271D1*
X777594Y897952D1*
X779142Y897426D1*
X780609Y896703D1*
X781969Y895795D1*
X783198Y894716D1*
X784276Y893487D1*
X785185Y892127D1*
X785908Y890661D1*
X786434Y889112D1*
X786753Y887508D1*
X786860Y885877D1*
Y885871D1*
X786753Y884240D1*
X786434Y882636D1*
X785908Y881087D1*
X785185Y879621D1*
X784276Y878261D1*
X783198Y877032D1*
X781969Y875953D1*
X780609Y875045D1*
X779142Y874322D1*
X777594Y873796D1*
X775990Y873477D1*
X774358Y873370D1*
X772727Y873477D1*
X771123Y873796D1*
X769574Y874322D1*
X768108Y875045D1*
X766748Y875953D1*
X765519Y877032D1*
X764440Y878261D1*
X763532Y879621D1*
X762809Y881087D1*
X762283Y882636D1*
X761964Y884240D1*
X761857Y885871D1*
Y885877D1*
G37*
X1032398Y832344D2*
D10*
Y596127D1*
X1174130Y832344D2*
Y596127D1*
Y832344D2*
X1150503D1*
X1032398D2*
X1056025D1*
X1032398Y596127D2*
X1056025D1*
X1150503D2*
X1174130D1*
X1158383Y832344D2*
Y812631D1*
X1146577D1*
X1063891D2*
X1048144D1*
Y832344D1*
X1130816Y769350D2*
X1075711D1*
Y659121D1*
X1130816D1*
Y769350D1*
G36*
X1119010Y757516D2*
X1087517D1*
Y670954D1*
X1119010D1*
Y757516D1*
G37*
X1115070Y753593D2*
D10*
X1130816Y769350D1*
X1115070Y674877D2*
X1130816Y659121D1*
X1091458Y674877D2*
X1075711Y659121D1*
X1091458Y753593D2*
X1075711Y765428D1*
G36*
X1090762Y882966D2*
X1090869Y884598D1*
X1091188Y886201D1*
X1091714Y887750D1*
X1092437Y889217D1*
X1093346Y890576D1*
X1094424Y891806D1*
X1095653Y892884D1*
X1097013Y893792D1*
X1098480Y894516D1*
X1100028Y895041D1*
X1101632Y895360D1*
X1103264Y895467D1*
X1104896Y895360D1*
X1106499Y895041D1*
X1108048Y894516D1*
X1109514Y893792D1*
X1110874Y892884D1*
X1112104Y891806D1*
X1113182Y890576D1*
X1114090Y889217D1*
X1114813Y887750D1*
X1115339Y886201D1*
X1115658Y884598D1*
X1115765Y882966D1*
Y882961D1*
X1115658Y881329D1*
X1115339Y879725D1*
X1114813Y878177D1*
X1114090Y876710D1*
X1113182Y875350D1*
X1112104Y874121D1*
X1110874Y873043D1*
X1109514Y872134D1*
X1108048Y871411D1*
X1106499Y870885D1*
X1104896Y870566D1*
X1103264Y870459D1*
X1101632Y870566D1*
X1100028Y870885D1*
X1098480Y871411D1*
X1097013Y872134D1*
X1095653Y873043D1*
X1094424Y874121D1*
X1093346Y875350D1*
X1092437Y876710D1*
X1091714Y878177D1*
X1091188Y879725D1*
X1090869Y881329D1*
X1090762Y882961D1*
Y882966D1*
G37*
X914123Y1309559D2*
D27*
X1059793D1*
Y1053654D1*
X914123D1*
Y1309559D1*
X842273Y1319402D2*
X900344D1*
X975072Y2132115D2*
D10*
X821529D1*
X975072Y1741564D2*
X821529D1*
G36*
X773891Y2149438D2*
X775176Y2149354D1*
X776439Y2149103D1*
X777658Y2148689D1*
X778812Y2148120D1*
X779883Y2147404D1*
X780851Y2146556D1*
X781700Y2145588D1*
X782415Y2144517D1*
X782984Y2143362D1*
X783398Y2142143D1*
X783649Y2140881D1*
X783734Y2139596D1*
X783649Y2138311D1*
X783398Y2137048D1*
X782984Y2135829D1*
X782415Y2134675D1*
X781700Y2133604D1*
X780851Y2132636D1*
X779883Y2131787D1*
X778812Y2131072D1*
X777658Y2130502D1*
X776439Y2130089D1*
X775176Y2129837D1*
X773891Y2129753D1*
D1*
X772606Y2129837D1*
X771344Y2130089D1*
X770125Y2130502D1*
X768970Y2131072D1*
X767899Y2131787D1*
X766931Y2132636D1*
X766082Y2133604D1*
X765367Y2134675D1*
X764798Y2135829D1*
X764384Y2137048D1*
X764133Y2138311D1*
X764049Y2139596D1*
X764133Y2140881D1*
X764384Y2142143D1*
X764798Y2143362D1*
X765367Y2144517D1*
X766082Y2145588D1*
X766931Y2146556D1*
X767899Y2147404D1*
X768970Y2148120D1*
X770125Y2148689D1*
X771344Y2149103D1*
X772606Y2149354D1*
X773891Y2149438D1*
D1*
G37*
X1011139Y2317332D2*
D29*
X1011169Y2316991D1*
X1011257Y2316659D1*
X1011403Y2316348D1*
X1011600Y2316067D1*
X1011843Y2315824D1*
X1012123Y2315627D1*
X1012434Y2315482D1*
X1012766Y2315394D1*
X1013108Y2315364D1*
X1013449Y2315394D1*
X1013781Y2315482D1*
X1014092Y2315627D1*
X1014373Y2315824D1*
X1014615Y2316067D1*
X1014812Y2316348D1*
X1014958Y2316659D1*
X1015046Y2316991D1*
X1015076Y2317332D1*
X1015046Y2317673D1*
X1014958Y2318005D1*
X1014812Y2318316D1*
X1014615Y2318597D1*
X1014373Y2318840D1*
X1014092Y2319037D1*
X1013781Y2319182D1*
X1013449Y2319270D1*
X1013108Y2319301D1*
X1012766Y2319270D1*
X1012434Y2319182D1*
X1012123Y2319037D1*
X1011843Y2318840D1*
X1011600Y2318597D1*
X1011403Y2318316D1*
X1011257Y2318005D1*
X1011169Y2317673D1*
X1011139Y2317332D1*
X1428803Y2227519D2*
D10*
X1428801Y2287755D1*
X1282344Y2287751D1*
X1282345Y2272397D1*
X1428806Y2083424D2*
X1428808Y2023188D1*
X1282351Y2023185D1*
Y2038539D1*
G36*
X1211478Y2289718D2*
X1212763Y2289634D1*
X1214026Y2289383D1*
X1215245Y2288969D1*
X1216399Y2288400D1*
X1217470Y2287684D1*
X1218438Y2286835D1*
X1219287Y2285868D1*
X1220002Y2284797D1*
X1220572Y2283642D1*
X1220986Y2282423D1*
X1221237Y2281161D1*
X1221321Y2279876D1*
X1221237Y2278591D1*
X1220986Y2277328D1*
X1220572Y2276109D1*
X1220002Y2274955D1*
X1219287Y2273884D1*
X1218438Y2272916D1*
X1217470Y2272067D1*
X1216400Y2271352D1*
X1215245Y2270782D1*
X1214026Y2270369D1*
X1212763Y2270117D1*
X1211479Y2270033D1*
D1*
X1210194Y2270117D1*
X1208931Y2270368D1*
X1207712Y2270782D1*
X1206557Y2271352D1*
X1205487Y2272067D1*
X1204519Y2272916D1*
X1203670Y2273884D1*
X1202955Y2274954D1*
X1202385Y2276109D1*
X1201971Y2277328D1*
X1201720Y2278591D1*
X1201636Y2279875D1*
X1201720Y2281160D1*
X1201971Y2282423D1*
X1202385Y2283642D1*
X1202954Y2284797D1*
X1203670Y2285867D1*
X1204519Y2286835D1*
X1205486Y2287684D1*
X1206557Y2288399D1*
X1207712Y2288969D1*
X1208931Y2289383D1*
X1210193Y2289634D1*
X1211478Y2289718D1*
D1*
G37*
X557462Y1808259D2*
D10*
Y2060227D1*
X740927Y1808259D2*
Y2060227D1*
X557462Y1808259D2*
G03X740927Y1808259I91732J0D01*
G01*
X557462Y2060227D2*
G02X740927Y2060227I91732J0D01*
G01*
X1226785Y1318551D2*
Y1218551D1*
X1426785Y1318551D2*
X1226785D1*
X1426785D2*
Y1218551D1*
X1226785D1*
X1566317Y1244921D2*
D56*
X1563465Y1243495D1*
X1560580Y1240610D1*
X1559154Y1237758D1*
Y1232021D1*
X1560580Y1229136D1*
X1563465Y1226284D1*
X1566317Y1224825D1*
X1570628Y1223399D1*
X1577824D1*
X1582102Y1224825D1*
X1584987Y1226284D1*
X1587839Y1229136D1*
X1589298Y1232021D1*
Y1237758D1*
X1587839Y1240610D1*
X1584987Y1243495D1*
X1582102Y1244921D1*
X1577824D1*
Y1237758D1*
X1559154Y1274281D2*
X1589298D1*
X1559154Y1254185D1*
X1589298D1*
X1559154Y1283544D2*
X1589298D1*
Y1293592D1*
X1587839Y1297903D1*
X1584987Y1300788D1*
X1582102Y1302214D1*
X1577824Y1303640D1*
X1570628D1*
X1566317Y1302214D1*
X1563465Y1300788D1*
X1560580Y1297903D1*
X1559154Y1293592D1*
Y1283544D1*
X1573863Y1077142D2*
D57*
Y1081442D1*
X1573377Y1082879D1*
X1572901Y1083365D1*
X1571951Y1083841D1*
X1570989D1*
X1570038Y1083365D1*
X1569552Y1082879D1*
X1569077Y1081442D1*
Y1077142D1*
X1579125D1*
X1573863Y1080491D2*
X1579125Y1083841D1*
X1569077Y1090278D2*
X1579125D1*
X1569077Y1086929D2*
Y1093627D1*
X1570514Y1103414D2*
X1569552Y1102463D1*
X1569077Y1101026D1*
Y1099114D1*
X1569552Y1097677D1*
X1570514Y1096715D1*
X1571464D1*
X1572426Y1097201D1*
X1572901Y1097677D1*
X1573377Y1098627D1*
X1574338Y1101501D1*
X1574814Y1102463D1*
X1575300Y1102938D1*
X1576251Y1103414D1*
X1577688D1*
X1578638Y1102463D1*
X1579125Y1101026D1*
Y1099114D1*
X1578638Y1097677D1*
X1577688Y1096715D1*
X1579125Y1106502D2*
X1569088Y1113200D1*
X1569077Y1119637D2*
X1579125D1*
X1569077Y1116288D2*
Y1122987D1*
Y1132287D2*
Y1126075D1*
X1579125D1*
Y1132287D1*
X1573863Y1126075D2*
Y1129899D1*
X1570514Y1142073D2*
X1569552Y1141123D1*
X1569077Y1139686D1*
Y1137773D1*
X1569552Y1136336D1*
X1570514Y1135375D1*
X1571464D1*
X1572426Y1135861D1*
X1572901Y1136336D1*
X1573377Y1137287D1*
X1574338Y1140161D1*
X1574814Y1141123D1*
X1575300Y1141598D1*
X1576251Y1142073D1*
X1577688D1*
X1578638Y1141123D1*
X1579125Y1139686D1*
Y1137773D1*
X1578638Y1136336D1*
X1577688Y1135375D1*
X1569077Y1148511D2*
X1579125D1*
X1569077Y1145161D2*
Y1151860D1*
X1576422Y972963D2*
D58*
Y981562D1*
X1575449Y984437D1*
X1574498Y985409D1*
X1572597Y986360D1*
X1570674D1*
X1568772Y985409D1*
X1567800Y984437D1*
X1566849Y981562D1*
Y972963D1*
X1586945D1*
X1576422Y979661D2*
X1586945Y986360D1*
X1566849Y1004960D2*
Y992536D1*
X1586945D1*
Y1004960D1*
X1576422Y992536D2*
Y1000185D1*
X1569723Y1024533D2*
X1567800Y1022632D1*
X1566849Y1019758D1*
Y1015933D1*
X1567800Y1013059D1*
X1569723Y1011136D1*
X1571624D1*
X1573548Y1012109D1*
X1574498Y1013059D1*
X1575449Y1014961D1*
X1577372Y1020709D1*
X1578323Y1022632D1*
X1579296Y1023583D1*
X1581197Y1024533D1*
X1584071D1*
X1585972Y1022632D1*
X1586945Y1019758D1*
Y1015933D1*
X1585972Y1013059D1*
X1584071Y1011136D1*
X1566849Y1043134D2*
Y1030709D1*
X1586945D1*
Y1043134D1*
X1576422Y1030709D2*
Y1038358D1*
X1566849Y1056008D2*
X1586945D1*
X1566849Y1049309D2*
Y1062707D1*
X1579590Y888234D2*
Y896856D1*
X1578640Y899708D1*
X1577667Y900681D1*
X1575766Y901632D1*
X1572892D1*
X1570990Y900681D1*
X1570018Y899708D1*
X1569067Y896856D1*
Y888234D1*
X1589163D1*
X1572914Y907807D2*
X1571941Y909731D1*
X1569089Y912605D1*
X1589163D1*
X1587240Y919731D2*
X1588212Y918780D1*
X1589163Y919731D1*
X1588212Y920704D1*
X1587240Y919731D1*
X1589163Y930704D2*
X1569089Y940277D1*
Y926879D1*
X1581190Y796562D2*
Y805184D1*
X1580239Y808036D1*
X1579267Y809009D1*
X1577365Y809960D1*
X1574491D1*
X1572590Y809009D1*
X1571617Y808036D1*
X1570667Y805184D1*
Y796562D1*
X1590763D1*
X1574513Y816135D2*
X1573541Y818059D1*
X1570689Y820933D1*
X1590763D1*
X1588839Y828059D2*
X1589812Y827108D1*
X1590763Y828059D1*
X1589812Y829032D1*
X1588839Y828059D1*
X1573541Y846681D2*
X1571639Y845731D1*
X1570689Y842857D1*
Y840956D1*
X1571639Y838082D1*
X1574513Y836158D1*
X1579289Y835208D1*
X1584064D1*
X1587889Y836158D1*
X1589812Y838082D1*
X1590763Y840956D1*
Y841906D1*
X1589812Y844758D1*
X1587889Y846681D1*
X1585015Y847632D1*
X1584064D1*
X1581190Y846681D1*
X1579289Y844758D1*
X1578338Y841906D1*
Y840956D1*
X1579289Y838082D1*
X1581190Y836158D1*
X1584064Y835208D1*
X533511Y1393991D2*
X553607Y1401641D1*
X533511Y1409290D1*
X538286Y1429814D2*
X536385Y1428863D1*
X534461Y1426940D1*
X533511Y1425038D1*
Y1421214D1*
X534461Y1419290D1*
X536385Y1417389D1*
X538286Y1416416D1*
X541160Y1415466D1*
X545957D1*
X548809Y1416416D1*
X550732Y1417389D1*
X552634Y1419290D1*
X553607Y1421214D1*
Y1425038D1*
X552634Y1426940D1*
X550732Y1428863D1*
X548809Y1429814D1*
X538286Y1450337D2*
X536385Y1449387D1*
X534461Y1447463D1*
X533511Y1445562D1*
Y1441737D1*
X534461Y1439814D1*
X536385Y1437913D1*
X538286Y1436940D1*
X541160Y1435989D1*
X545957D1*
X548809Y1436940D1*
X550732Y1437913D1*
X552634Y1439814D1*
X553607Y1441737D1*
Y1445562D1*
X552634Y1447463D1*
X550732Y1449387D1*
X548809Y1450337D1*
X1581405Y688523D2*
Y697145D1*
X1580455Y699997D1*
X1579482Y700970D1*
X1577581Y701920D1*
X1574707D1*
X1572805Y700970D1*
X1571833Y699997D1*
X1570882Y697145D1*
Y688523D1*
X1590978D1*
X1575679Y709069D2*
X1574729D1*
X1572805Y710019D1*
X1571855Y710970D1*
X1570904Y712893D1*
Y716718D1*
X1571855Y718619D1*
X1572805Y719570D1*
X1574729Y720543D1*
X1576630D1*
X1578553Y719570D1*
X1581405Y717669D1*
X1590978Y708096D1*
Y721493D1*
X1589055Y728620D2*
X1590027Y727669D1*
X1590978Y728620D1*
X1590027Y729592D1*
X1589055Y728620D1*
X1570904Y747242D2*
Y737691D1*
X1579504Y736741D1*
X1578553Y737691D1*
X1577581Y740565D1*
Y743417D1*
X1578553Y746291D1*
X1580455Y748215D1*
X1583329Y749165D1*
X1585230D1*
X1588104Y748215D1*
X1590027Y746291D1*
X1590978Y743417D1*
Y740565D1*
X1590027Y737691D1*
X1589055Y736741D1*
X1587153Y735768D1*
X1583863Y586666D2*
Y595288D1*
X1582913Y598140D1*
X1581940Y599113D1*
X1580039Y600063D1*
X1577165D1*
X1575263Y599113D1*
X1574291Y598140D1*
X1573340Y595288D1*
Y586666D1*
X1593436D1*
X1578137Y607212D2*
X1577187D1*
X1575263Y608162D1*
X1574313Y609113D1*
X1573362Y611036D1*
Y614861D1*
X1574313Y616762D1*
X1575263Y617713D1*
X1577187Y618686D1*
X1579088D1*
X1581011Y617713D1*
X1583863Y615812D1*
X1593436Y606239D1*
Y619636D1*
X1591513Y626763D2*
X1592485Y625812D1*
X1593436Y626763D1*
X1592485Y627735D1*
X1591513Y626763D1*
X1593436Y643484D2*
X1573362D1*
X1586737Y633911D1*
Y648259D1*
X1584820Y483919D2*
Y492541D1*
X1583869Y495393D1*
X1582897Y496366D1*
X1580995Y497317D1*
X1578121D1*
X1576220Y496366D1*
X1575247Y495393D1*
X1574297Y492541D1*
Y483919D1*
X1594393D1*
X1579094Y504465D2*
X1578143D1*
X1576220Y505416D1*
X1575269Y506366D1*
X1574319Y508290D1*
Y512114D1*
X1575269Y514016D1*
X1576220Y514966D1*
X1578143Y515939D1*
X1580045D1*
X1581968Y514966D1*
X1584820Y513065D1*
X1594393Y503492D1*
Y516890D1*
X1592469Y524016D2*
X1593442Y523065D1*
X1594393Y524016D1*
X1593442Y524989D1*
X1592469Y524016D1*
X1574319Y533088D2*
Y543589D1*
X1581968Y537863D1*
Y540737D1*
X1582919Y542638D1*
X1583869Y543589D1*
X1586743Y544562D1*
X1588645D1*
X1591519Y543589D1*
X1593442Y541688D1*
X1594393Y538814D1*
Y535940D1*
X1593442Y533088D1*
X1592469Y532137D1*
X1590568Y531164D1*
X547565Y1290839D2*
Y1299461D1*
X546615Y1302313D1*
X545642Y1303286D1*
X543741Y1304237D1*
X540867D1*
X538965Y1303286D1*
X537993Y1302313D1*
X537042Y1299461D1*
Y1290839D1*
X557138D1*
X540889Y1310412D2*
X539916Y1312336D1*
X537064Y1315210D1*
X557138D1*
X555215Y1322336D2*
X556187Y1321385D1*
X557138Y1322336D1*
X556187Y1323309D1*
X555215Y1322336D1*
X537064Y1335232D2*
X538015Y1332358D1*
X540889Y1330435D1*
X545664Y1329484D1*
X548538D1*
X553313Y1330435D1*
X556187Y1332358D1*
X557138Y1335232D1*
Y1337134D1*
X556187Y1340008D1*
X553313Y1341909D1*
X548538Y1342882D1*
X545664D1*
X540889Y1341909D1*
X538015Y1340008D1*
X537064Y1337134D1*
Y1335232D1*
X540889Y1341909D2*
X553313Y1330435D1*
X548753Y1197480D2*
Y1206102D1*
X547802Y1208954D1*
X546830Y1209926D1*
X544928Y1210877D1*
X542054D1*
X540153Y1209926D1*
X539180Y1208954D1*
X538230Y1206102D1*
Y1197480D1*
X558326D1*
X542076Y1217053D2*
X541104Y1218976D1*
X538252Y1221850D1*
X558326D1*
X556402Y1228976D2*
X557375Y1228026D1*
X558326Y1228976D1*
X557375Y1229949D1*
X556402Y1228976D1*
X542076Y1236125D2*
X541104Y1238048D1*
X538252Y1240922D1*
X558326D1*
X549413Y1091435D2*
Y1100057D1*
X548462Y1102909D1*
X547490Y1103882D1*
X545588Y1104832D1*
X542714D1*
X540813Y1103882D1*
X539840Y1102909D1*
X538890Y1100057D1*
Y1091435D1*
X558986D1*
X542737Y1111008D2*
X541764Y1112931D1*
X538912Y1115805D1*
X558986D1*
X557062Y1122932D2*
X558035Y1121981D1*
X558986Y1122932D1*
X558035Y1123905D1*
X557062Y1122932D1*
X543687Y1131053D2*
X542737D1*
X540813Y1132004D1*
X539863Y1132954D1*
X538912Y1134878D1*
Y1138702D1*
X539863Y1140604D1*
X540813Y1141554D1*
X542737Y1142527D1*
X544638D1*
X546561Y1141554D1*
X549413Y1139653D1*
X558986Y1130080D1*
Y1143478D1*
X548172Y991767D2*
Y1000389D1*
X547221Y1003241D1*
X546248Y1004214D1*
X544347Y1005164D1*
X541473D1*
X539572Y1004214D1*
X538599Y1003241D1*
X537648Y1000389D1*
Y991767D1*
X557744D1*
X541495Y1011340D2*
X540522Y1013263D1*
X537670Y1016137D1*
X557744D1*
X555821Y1023264D2*
X556794Y1022313D1*
X557744Y1023264D1*
X556794Y1024237D1*
X555821Y1023264D1*
X537670Y1032336D2*
Y1042837D1*
X545320Y1037111D1*
Y1039985D1*
X546270Y1041886D1*
X547221Y1042837D1*
X550095Y1043810D1*
X551996D1*
X554870Y1042837D1*
X556794Y1040936D1*
X557744Y1038062D1*
Y1035188D1*
X556794Y1032336D1*
X555821Y1031385D1*
X553920Y1030412D1*
X546030Y895320D2*
Y903942D1*
X545079Y906793D1*
X544107Y907766D1*
X542205Y908717D1*
X539331D1*
X537430Y907766D1*
X536457Y906793D1*
X535507Y903942D1*
Y895320D1*
X555603D1*
X539353Y914893D2*
X538381Y916816D1*
X535529Y919690D1*
X555603D1*
X553679Y926816D2*
X554652Y925866D1*
X555603Y926816D1*
X554652Y927789D1*
X553679Y926816D1*
X555603Y943537D2*
X535529D1*
X548904Y933965D1*
Y948313D1*
X546010Y796617D2*
Y805239D1*
X545060Y808091D1*
X544087Y809064D1*
X542186Y810015D1*
X539312D1*
X537410Y809064D1*
X536438Y808091D1*
X535487Y805239D1*
Y796617D1*
X555583D1*
X539334Y816190D2*
X538361Y818114D1*
X535509Y820988D1*
X555583D1*
X553660Y828114D2*
X554632Y827164D1*
X555583Y828114D1*
X554632Y829087D1*
X553660Y828114D1*
X535509Y846737D2*
Y837186D1*
X544109Y836235D1*
X543158Y837186D1*
X542186Y840060D1*
Y842912D1*
X543158Y845786D1*
X545060Y847709D1*
X547934Y848660D1*
X549835D1*
X552709Y847709D1*
X554632Y845786D1*
X555583Y842912D1*
Y840060D1*
X554632Y837186D1*
X553660Y836235D1*
X551758Y835263D1*
X544319Y687057D2*
Y695679D1*
X543368Y698531D1*
X542395Y699504D1*
X540494Y700454D1*
X537620D1*
X535719Y699504D1*
X534746Y698531D1*
X533795Y695679D1*
Y687057D1*
X553891D1*
X538593Y707603D2*
X537642D1*
X535719Y708553D1*
X534768Y709504D1*
X533817Y711427D1*
Y715252D1*
X534768Y717153D1*
X535719Y718104D1*
X537642Y719077D1*
X539543D1*
X541467Y718104D1*
X544319Y716203D1*
X553891Y706630D1*
Y720027D1*
X551968Y727154D2*
X552941Y726203D1*
X553891Y727154D1*
X552941Y728126D1*
X551968Y727154D1*
X533817Y740050D2*
X534768Y737176D1*
X537642Y735253D1*
X542417Y734302D1*
X545291D1*
X550067Y735253D1*
X552941Y737176D1*
X553891Y740050D1*
Y741951D1*
X552941Y744826D1*
X550067Y746727D1*
X545291Y747700D1*
X542417D1*
X537642Y746727D1*
X534768Y744826D1*
X533817Y741951D1*
Y740050D1*
X537642Y746727D2*
X550067Y735253D1*
X542438Y588536D2*
Y597158D1*
X541487Y600010D1*
X540515Y600983D1*
X538613Y601933D1*
X535739D1*
X533838Y600983D1*
X532865Y600010D1*
X531915Y597158D1*
Y588536D1*
X552011D1*
X536712Y609082D2*
X535761D1*
X533838Y610032D1*
X532887Y610983D1*
X531937Y612906D1*
Y616731D1*
X532887Y618632D1*
X533838Y619583D1*
X535761Y620556D1*
X537663D1*
X539586Y619583D1*
X542438Y617682D1*
X552011Y608109D1*
Y621506D1*
X550087Y628633D2*
X551060Y627682D1*
X552011Y628633D1*
X551060Y629605D1*
X550087Y628633D1*
X535761Y635781D2*
X534789Y637705D1*
X531937Y640579D1*
X552011D1*
X547627Y488196D2*
Y496818D1*
X546676Y499670D1*
X545704Y500643D1*
X543802Y501593D1*
X540928D1*
X539027Y500643D1*
X538054Y499670D1*
X537104Y496818D1*
Y488196D1*
X557200D1*
X541901Y508742D2*
X540950D1*
X539027Y509693D1*
X538076Y510643D1*
X537126Y512567D1*
Y516391D1*
X538076Y518293D1*
X539027Y519243D1*
X540950Y520216D1*
X542852D1*
X544775Y519243D1*
X547627Y517342D1*
X557200Y507769D1*
Y521167D1*
X555276Y528293D2*
X556249Y527342D1*
X557200Y528293D1*
X556249Y529266D1*
X555276Y528293D1*
X541901Y536414D2*
X540950D1*
X539027Y537365D1*
X538076Y538315D1*
X537126Y540239D1*
Y544063D1*
X538076Y545965D1*
X539027Y546915D1*
X540950Y547888D1*
X542852D1*
X544775Y546915D1*
X547627Y545014D1*
X557200Y535441D1*
Y548839D1*
X989522Y1540687D2*
D55*
X986670Y1546391D1*
X980900Y1552161D1*
X975196Y1555013D1*
X963722D1*
X957952Y1552161D1*
X952248Y1546391D1*
X949330Y1540687D1*
X946478Y1532065D1*
Y1517673D1*
X949330Y1509118D1*
X952248Y1503347D1*
X957952Y1497644D1*
X963722Y1494725D1*
X975196D1*
X980900Y1497644D1*
X986670Y1503347D1*
X989522Y1509118D1*
X1008049Y1543473D2*
X1013819Y1546391D1*
X1022441Y1554947D1*
Y1494725D1*
X1272011Y1387941D2*
X1266307Y1385089D1*
X1260537Y1379319D1*
X1257685Y1373615D1*
Y1362141D1*
X1260537Y1356371D1*
X1266307Y1350667D1*
X1272011Y1347749D1*
X1280633Y1344897D1*
X1295025D1*
X1303581Y1347749D1*
X1309351Y1350667D1*
X1315055Y1356371D1*
X1317973Y1362141D1*
Y1373615D1*
X1315055Y1379319D1*
X1309351Y1385089D1*
X1303581Y1387941D1*
X1272077Y1409386D2*
X1269225D1*
X1263455Y1412238D1*
X1260603Y1415090D1*
X1257751Y1420860D1*
Y1432334D1*
X1260603Y1438038D1*
X1263455Y1440890D1*
X1269225Y1443808D1*
X1274929D1*
X1280699Y1440890D1*
X1289255Y1435186D1*
X1317973Y1406468D1*
Y1446660D1*
X1189894Y1387078D2*
X1184190Y1384227D1*
X1178420Y1378456D1*
X1175568Y1372753D1*
Y1361279D1*
X1178420Y1355508D1*
X1184190Y1349805D1*
X1189894Y1346886D1*
X1198516Y1344035D1*
X1212908D1*
X1221464Y1346886D1*
X1227234Y1349805D1*
X1232938Y1355508D1*
X1235856Y1361279D1*
Y1372753D1*
X1232938Y1378456D1*
X1227234Y1384227D1*
X1221464Y1387078D1*
X1175634Y1411376D2*
Y1442879D1*
X1198582Y1425702D1*
Y1434324D1*
X1201434Y1440027D1*
X1204286Y1442879D1*
X1212908Y1445798D1*
X1218612D1*
X1227234Y1442879D1*
X1233004Y1437175D1*
X1235856Y1428553D1*
Y1419931D1*
X1233004Y1411376D1*
X1230086Y1408524D1*
X1224382Y1405606D1*
X503993Y1810169D2*
X506845Y1804466D1*
X512615Y1798696D1*
X518319Y1795844D1*
X529793D1*
X535563Y1798696D1*
X541267Y1804466D1*
X544185Y1810169D1*
X547037Y1818792D1*
Y1833184D1*
X544185Y1841739D1*
X541267Y1847510D1*
X535563Y1853213D1*
X529793Y1856132D1*
X518319D1*
X512615Y1853213D1*
X506845Y1847510D1*
X503993Y1841739D1*
X456748Y1856132D2*
Y1795910D1*
X485466Y1836036D1*
X442422D1*
X498475Y1889158D2*
X501327Y1883454D1*
X507097Y1877684D1*
X512801Y1874832D1*
X524275D1*
X530045Y1877684D1*
X535749Y1883454D1*
X538667Y1889158D1*
X541519Y1897780D1*
Y1912172D1*
X538667Y1920728D1*
X535749Y1926498D1*
X530045Y1932202D1*
X524275Y1935120D1*
X512801D1*
X507097Y1932202D1*
X501327Y1926498D1*
X498475Y1920728D1*
X445526Y1874898D2*
X474178D1*
X477030Y1900698D1*
X474178Y1897846D1*
X465556Y1894928D1*
X457000D1*
X448378Y1897846D1*
X442608Y1903550D1*
X439756Y1912172D1*
Y1917876D1*
X442608Y1926498D1*
X448378Y1932268D1*
X457000Y1935120D1*
X465556D1*
X474178Y1932268D1*
X477030Y1929350D1*
X479948Y1923646D1*
X498943Y1954062D2*
X501795Y1948358D1*
X507565Y1942588D1*
X513269Y1939736D1*
X524743D1*
X530513Y1942588D1*
X536217Y1948358D1*
X539135Y1954062D1*
X541987Y1962684D1*
Y1977076D1*
X539135Y1985632D1*
X536217Y1991402D1*
X530513Y1997106D1*
X524743Y2000024D1*
X513269D1*
X507565Y1997106D1*
X501795Y1991402D1*
X498943Y1985632D1*
X445994Y1948358D2*
X448846Y1942654D1*
X457468Y1939802D1*
X463172D1*
X471794Y1942654D1*
X477564Y1951276D1*
X480416Y1965602D1*
Y1979928D1*
X477564Y1991402D1*
X471794Y1997172D1*
X463172Y2000024D1*
X460320D1*
X451764Y1997172D1*
X445994Y1991402D1*
X443142Y1982780D1*
Y1979928D1*
X445994Y1971306D1*
X451764Y1965602D1*
X460320Y1962750D1*
X463172D1*
X471794Y1965602D1*
X477564Y1971306D1*
X480416Y1979928D1*
X499542Y1737143D2*
X502394Y1731439D1*
X508164Y1725669D1*
X513868Y1722817D1*
X525342D1*
X531112Y1725669D1*
X536816Y1731439D1*
X539734Y1737143D1*
X542586Y1745765D1*
Y1760157D1*
X539734Y1768713D1*
X536816Y1774483D1*
X531112Y1780187D1*
X525342Y1783105D1*
X513868D1*
X508164Y1780187D1*
X502394Y1774483D1*
X499542Y1768713D1*
X469541Y1783105D2*
X440823Y1722884D1*
X481015D1*
X1047702Y2195315D2*
X1041999Y2192463D1*
X1036229Y2186692D1*
X1033377Y2180988D1*
Y2169515D1*
X1036229Y2163744D1*
X1041999Y2158041D1*
X1047703Y2155123D1*
X1056325Y2152271D1*
X1070717D1*
X1079273Y2155123D1*
X1085043Y2158042D1*
X1090747Y2163745D1*
X1093665Y2169516D1*
Y2180990D1*
X1090746Y2186693D1*
X1085043Y2192463D1*
X1079272Y2195315D1*
X1033442Y2228167D2*
X1036294Y2219612D1*
X1041998Y2216693D1*
X1047768Y2216694D1*
X1053472Y2219612D1*
X1056390Y2225316D1*
X1059242Y2236790D1*
X1062094Y2245412D1*
X1067864Y2251116D1*
X1073567Y2253968D1*
X1082190D1*
X1087893Y2251116D1*
X1090812Y2248264D1*
X1093664Y2239642D1*
Y2228168D1*
X1090812Y2219613D1*
X1087894Y2216694D1*
X1082190Y2213842D1*
X1073568D1*
X1067864Y2216694D1*
X1062094Y2222464D1*
X1059242Y2231020D1*
X1056390Y2242494D1*
X1053472Y2248264D1*
X1047768Y2251115D1*
X1041998D1*
X1036294Y2248263D1*
X1033442Y2239641D1*
Y2228167D1*
X1331308Y1983984D2*
X1328456Y1989688D1*
X1322685Y1995458D1*
X1316982Y1998310D1*
X1305508D1*
X1299738Y1995458D1*
X1294034Y1989688D1*
X1291116Y1983984D1*
X1288264Y1975362D1*
Y1960970D1*
X1291116Y1952414D1*
X1294034Y1946644D1*
X1299738Y1940940D1*
X1305508Y1938022D1*
X1316982D1*
X1322685Y1940940D1*
X1328456Y1946644D1*
X1331308Y1952414D1*
X1387175Y1978214D2*
X1384256Y1969592D1*
X1378553Y1963822D1*
X1369931Y1960970D1*
X1367079D1*
X1358457Y1963822D1*
X1352753Y1969592D1*
X1349835Y1978214D1*
Y1981066D1*
X1352753Y1989688D1*
X1358457Y1995392D1*
X1367079Y1998244D1*
X1369931D1*
X1378553Y1995392D1*
X1384256Y1989688D1*
X1387175Y1978214D1*
Y1963822D1*
X1384256Y1949496D1*
X1378553Y1940874D1*
X1369931Y1938022D1*
X1364227D1*
X1355605Y1940874D1*
X1352753Y1946644D1*
X1035998Y1857381D2*
X1096286Y1857382D1*
X1096285Y1877478D1*
X1093367Y1886100D1*
X1087663Y1891870D1*
X1081893Y1894722D1*
X1073337Y1897573D1*
X1058945D1*
X1050323Y1894721D1*
X1044619Y1891869D1*
X1038849Y1886099D1*
X1035997Y1877477D1*
X1035998Y1857381D1*
X1047537Y1916100D2*
X1044619Y1921870D1*
X1036063Y1930492D1*
X1096284Y1930493D1*
X1120017Y1725657D2*
X1180305D1*
Y1745753D1*
X1177387Y1754375D1*
X1171683Y1760145D1*
X1165913Y1762997D1*
X1157357Y1765849D1*
X1142965D1*
X1134343Y1762997D1*
X1128639Y1760145D1*
X1122869Y1754375D1*
X1120017Y1745753D1*
Y1725657D1*
X1134409Y1787295D2*
X1131557D1*
X1125787Y1790147D1*
X1122935Y1792998D1*
X1120083Y1798769D1*
Y1810243D1*
X1122935Y1815946D1*
X1125787Y1818798D1*
X1131557Y1821717D1*
X1137261D1*
X1143031Y1818798D1*
X1151587Y1813094D1*
X1180305Y1784376D1*
Y1824568D1*
X1116736Y672878D2*
X1177024D1*
Y692974D1*
X1174106Y701596D1*
X1168402Y707366D1*
X1162632Y710218D1*
X1154076Y713070D1*
X1139684D1*
X1131062Y710218D1*
X1125358Y707366D1*
X1119588Y701596D1*
X1116736Y692974D1*
Y672878D1*
X1116802Y737367D2*
Y768871D1*
X1139750Y751693D1*
Y760315D1*
X1142602Y766019D1*
X1145454Y768871D1*
X1154076Y771789D1*
X1159780D1*
X1168402Y768871D1*
X1174172Y763167D1*
X1177024Y754545D1*
Y745923D1*
X1174172Y737367D1*
X1171254Y734515D1*
X1165550Y731597D1*
X337098Y964549D2*
X382994D1*
X391616Y961697D1*
X394468Y958779D1*
X397386Y953075D1*
Y947305D1*
X394468Y941601D1*
X391616Y938749D1*
X382994Y935831D1*
X377290D1*
X348638Y983076D2*
X345720Y988846D1*
X337165Y997468D1*
X397386D1*
X1364800Y953893D2*
X1410696D1*
X1419318Y951041D1*
X1422170Y948123D1*
X1425088Y942419D1*
Y936649D1*
X1422170Y930945D1*
X1419318Y928093D1*
X1410696Y925175D1*
X1404992D1*
X1379192Y975339D2*
X1376341D1*
X1370570Y978190D1*
X1367719Y981042D1*
X1364867Y986812D1*
Y998286D1*
X1367719Y1003990D1*
X1370570Y1006842D1*
X1376341Y1009760D1*
X1382044D1*
X1387815Y1006842D1*
X1396370Y1001138D1*
X1425088Y972420D1*
Y1012612D1*
X806647Y1550129D2*
X760751D1*
X752129Y1552981D1*
X749277Y1555899D1*
X746359Y1561603D1*
Y1567373D1*
X749277Y1573077D1*
X752129Y1575929D1*
X760751Y1578847D1*
X766455D1*
X806581Y1525832D2*
Y1494328D1*
X783633Y1511506D1*
Y1502884D1*
X780781Y1497180D1*
X777929Y1494328D1*
X769307Y1491410D1*
X763603D1*
X754981Y1494328D1*
X749211Y1500032D1*
X746359Y1508654D1*
Y1517276D1*
X749211Y1525832D1*
X752129Y1528684D1*
X757833Y1531602D1*
X994296Y1551688D2*
X948400D1*
X939778Y1554540D1*
X936926Y1557458D1*
X934008Y1563162D1*
Y1568932D1*
X936926Y1574636D1*
X939778Y1577487D1*
X948400Y1580406D1*
X954104D1*
X934008Y1504442D2*
X994229D1*
X954104Y1533161D1*
Y1490117D1*
X1113210Y1848626D2*
X1107506Y1845840D1*
X1101736Y1840070D1*
X1098884Y1834299D1*
X1095966Y1825677D1*
X1095967Y1811351D1*
X1098885Y1802729D1*
X1101737Y1797026D1*
X1107507Y1791256D1*
X1113211Y1788404D1*
X1124685D1*
X1130455Y1791256D1*
X1136159Y1797027D1*
X1139011Y1802731D1*
X1141929Y1811353D1*
X1141928Y1825679D1*
X1139010Y1834300D1*
X1136158Y1840071D1*
X1130454Y1845840D1*
X1124683Y1848626D1*
X1113210D1*
X1121833Y1799878D2*
X1139011Y1782635D1*
X1160455Y1837087D2*
X1166225Y1840005D1*
X1174847Y1848561D1*
X1174849Y1788339D1*
X1147521Y1885024D2*
Y1910824D1*
X1144603Y1919446D1*
X1141751Y1922364D1*
X1136047Y1925216D1*
X1130277D1*
X1124573Y1922364D1*
X1121655Y1919446D1*
X1118803Y1910824D1*
Y1885024D1*
X1179091D1*
X1147521Y1905120D2*
X1179091Y1925216D1*
Y1972461D2*
X1118869D1*
X1158995Y1943743D1*
Y1986787D1*
X1035100Y897236D2*
Y923036D1*
X1032181Y931658D1*
X1029330Y934576D1*
X1023626Y937428D1*
X1017856D1*
X1012152Y934576D1*
X1009234Y931658D1*
X1006382Y923036D1*
Y897236D1*
X1066670D1*
X1035100Y917332D2*
X1066670Y937428D1*
X1006448Y990377D2*
Y961725D1*
X1032248Y958873D1*
X1029396Y961725D1*
X1026478Y970347D1*
Y978903D1*
X1029396Y987525D1*
X1035100Y993295D1*
X1043722Y996147D1*
X1049426D1*
X1058048Y993295D1*
X1063818Y987525D1*
X1066670Y978903D1*
Y970347D1*
X1063818Y961725D1*
X1060900Y958873D1*
X1055196Y955955D1*
X983449Y993376D2*
Y967576D1*
X986367Y958954D1*
X989219Y956036D1*
X994923Y953184D1*
X1000693D1*
X1006397Y956036D1*
X1009315Y958954D1*
X1012167Y967576D1*
Y993376D1*
X951879D1*
X983449Y973280D2*
X951879Y953184D1*
X1003545Y900235D2*
X1009249Y903087D1*
X1012101Y911709D1*
Y917413D1*
X1009249Y926035D1*
X1000627Y931805D1*
X986301Y934657D1*
X971975D1*
X960501Y931805D1*
X954731Y926035D1*
X951879Y917413D1*
Y914561D1*
X954731Y906005D1*
X960501Y900235D1*
X969123Y897383D1*
X971975D1*
X980597Y900235D1*
X986301Y906005D1*
X989153Y914561D1*
Y917413D1*
X986301Y926035D1*
X980597Y931805D1*
X971975Y934657D1*
X1079116Y994318D2*
Y968518D1*
X1082034Y959896D1*
X1084886Y956978D1*
X1090589Y954126D1*
X1096360D1*
X1102063Y956978D1*
X1104982Y959896D1*
X1107834Y968518D1*
Y994318D1*
X1047546D1*
X1079116Y974222D2*
X1047546Y954126D1*
Y924125D2*
X1107767Y895407D1*
Y935599D1*
X1151692Y1848764D2*
Y1822964D1*
X1154610Y1814342D1*
X1157462Y1811424D1*
X1163166Y1808572D1*
X1168936D1*
X1174640Y1811424D1*
X1177558Y1814342D1*
X1180410Y1822964D1*
Y1848764D1*
X1120122D1*
X1151692Y1828668D2*
X1120122Y1808572D1*
X1180343Y1775719D2*
X1177491Y1784274D1*
X1171788Y1787193D1*
X1166017D1*
X1160314Y1784274D1*
X1157395Y1778571D1*
X1154544Y1767097D1*
X1151692Y1758475D1*
X1145921Y1752771D1*
X1140218Y1749919D1*
X1131596D1*
X1125892Y1752771D1*
X1122974Y1755623D1*
X1120122Y1764245D1*
Y1775719D1*
X1122974Y1784274D1*
X1125892Y1787193D1*
X1131596Y1790044D1*
X1140218D1*
X1145921Y1787193D1*
X1151692Y1781422D1*
X1154544Y1772867D1*
X1157395Y1761393D1*
X1160314Y1755623D1*
X1166017Y1752771D1*
X1171788D1*
X1177491Y1755623D1*
X1180343Y1764245D1*
Y1775719D1*
X1138253Y1635892D2*
X1164053Y1635893D1*
X1172675Y1638812D1*
X1175593Y1641664D1*
X1178445Y1647367D1*
X1178444Y1653138D1*
X1175592Y1658841D1*
X1172674Y1661759D1*
X1164052Y1664611D1*
X1138252Y1664610D1*
X1138254Y1604322D1*
X1158349Y1635893D2*
X1178446Y1604324D1*
X1234312Y1644517D2*
X1231394Y1635895D1*
X1225690Y1630125D1*
X1217068Y1627273D1*
X1214216D1*
X1205594Y1630124D1*
X1199890Y1635894D1*
X1196972Y1644516D1*
Y1647368D1*
X1199890Y1655990D1*
X1205593Y1661694D1*
X1214215Y1664546D1*
X1217067D1*
X1225689Y1661695D1*
X1231393Y1655991D1*
X1234312Y1644517D1*
Y1630125D1*
X1231394Y1615799D1*
X1225691Y1607177D1*
X1217069Y1604325D1*
X1211365D1*
X1202743Y1607176D1*
X1199891Y1612946D1*
X1038957Y1960522D2*
X1038956Y1986321D1*
X1036038Y1994943D1*
X1033186Y1997862D1*
X1027482Y2000713D1*
X1021712D1*
X1016008Y1997861D1*
X1013090Y1994943D1*
X1010238Y1986321D1*
X1010239Y1960521D1*
X1070527Y1960522D1*
X1038956Y1980618D2*
X1070526Y2000714D1*
X1021778Y2019240D2*
X1018859Y2025011D1*
X1010303Y2033632D1*
X1070525Y2033634D1*
X1010303Y2069404D2*
X1013155Y2060782D1*
X1021777Y2055012D1*
X1036103Y2052160D1*
X1044725D1*
X1059051Y2055012D1*
X1067673Y2060783D1*
X1070525Y2069405D1*
X1070524Y2075109D1*
X1067672Y2083731D1*
X1059050Y2089434D1*
X1044724Y2092352D1*
X1036102D1*
X1021776Y2089434D1*
X1013154Y2083730D1*
X1010303Y2075107D1*
Y2069404D1*
X1021776Y2089434D2*
X1059051Y2055012D1*
X924470Y726372D2*
X930240Y732075D1*
X933092Y740697D1*
Y752171D1*
X930240Y760793D1*
X924470Y766564D1*
X918766D1*
X912996Y763645D1*
X910144Y760793D1*
X907292Y755090D1*
X901522Y737845D1*
X898670Y732075D1*
X895752Y729223D1*
X890048Y726372D1*
X881426D1*
X875722Y732075D1*
X872804Y740697D1*
Y752171D1*
X875722Y760793D1*
X881426Y766564D1*
X921552Y707844D2*
X924470Y702074D1*
X933026Y693452D1*
X872804D1*
X1253376Y736361D2*
X1259146Y742064D1*
X1261998Y750687D1*
Y762160D1*
X1259146Y770783D1*
X1253376Y776553D1*
X1247672D1*
X1241902Y773634D1*
X1239050Y770783D1*
X1236198Y765079D1*
X1230428Y747835D1*
X1227576Y742064D1*
X1224658Y739213D1*
X1218954Y736361D1*
X1210332D1*
X1204628Y742064D1*
X1201710Y750687D1*
Y762160D1*
X1204628Y770783D1*
X1210332Y776553D1*
X1247605Y714915D2*
X1250457D1*
X1256227Y712063D1*
X1259079Y709212D1*
X1261931Y703441D1*
Y691967D1*
X1259079Y686264D1*
X1256227Y683412D1*
X1250457Y680493D1*
X1244754D1*
X1238983Y683412D1*
X1230428Y689116D1*
X1201710Y717834D1*
Y677642D1*
X950402Y1409238D2*
Y1366194D1*
X953254Y1357572D1*
X959024Y1351868D1*
X967646Y1348950D1*
X973350D1*
X981972Y1351868D1*
X987742Y1357572D1*
X990594Y1366194D1*
Y1409238D1*
X1009121Y1397697D2*
X1014892Y1400616D1*
X1023514Y1409171D1*
Y1348950D1*
X1128294Y1991217D2*
X1085250D1*
X1076628Y1988365D1*
X1070924Y1982595D1*
X1068006Y1973973D1*
Y1968269D1*
X1070924Y1959647D1*
X1076628Y1953877D1*
X1085250Y1951025D1*
X1128294D1*
X1113902Y1929579D2*
X1116754D1*
X1122524Y1926727D1*
X1125376Y1923876D1*
X1128228Y1918105D1*
Y1906631D1*
X1125376Y1900928D1*
X1122524Y1898076D1*
X1116754Y1895158D1*
X1111050D1*
X1105280Y1898076D1*
X1096724Y1903780D1*
X1068006Y1932498D1*
Y1892306D1*
X981855Y2188126D2*
Y2231170D1*
X979003Y2239792D1*
X973232Y2245496D1*
X964610Y2248414D1*
X958907D1*
X950285Y2245496D1*
X944514Y2239792D1*
X941662Y2231170D1*
Y2188126D1*
X917365Y2188192D2*
X885862D1*
X903039Y2211140D1*
X894417D1*
X888714Y2213992D1*
X885862Y2216844D1*
X882943Y2225466D1*
Y2231170D1*
X885862Y2239792D1*
X891565Y2245562D1*
X900187Y2248414D1*
X908810D1*
X917365Y2245562D1*
X920217Y2242644D1*
X923135Y2236940D1*
X1605254Y2206358D2*
X1562210Y2206357D1*
X1553588Y2203505D1*
X1547884Y2197734D1*
X1544966Y2189112D1*
Y2183408D1*
X1547885Y2174786D1*
X1553589Y2169016D1*
X1562211Y2166165D1*
X1605255Y2166166D1*
X1544968Y2118919D2*
X1605189Y2118921D1*
X1565063Y2147638D1*
X1565064Y2104594D1*
X459752Y1894835D2*
X488470Y1917783D1*
X520040D1*
X459752Y1940731D2*
X488470Y1917783D1*
X471292Y1959258D2*
X468374Y1965028D1*
X459818Y1973650D1*
X520040D1*
X1379092Y1130683D2*
X1356144Y1159402D1*
Y1190971D1*
X1333196Y1130683D2*
X1356144Y1159402D1*
X1311751Y1145076D2*
Y1142224D1*
X1308899Y1136454D1*
X1306047Y1133602D1*
X1300277Y1130750D1*
X1288803D1*
X1283099Y1133602D1*
X1280247Y1136454D1*
X1277329Y1142224D1*
Y1147928D1*
X1280247Y1153698D1*
X1285951Y1162253D1*
X1314669Y1190971D1*
X1274477D1*
M02*
